<svg width="263" height="48" viewBox="0 0 263 48" fill="none" xmlns="http://www.w3.org/2000/svg">
<path d="M41.2451 9.21289H47.1424L45.5232 19.859C47.1424 17.8652 48.7617 17.0764 50.9188 17.226C54.3106 17.4518 56.2002 20.1228 56.0051 24.3361C55.6958 30.9946 51.0721 35.6594 44.7902 35.6594C42.438 35.6594 40.2808 35.246 37.4297 34.2314L41.2451 9.21289ZM43.8287 30.8804C44.754 31.0681 45.2556 31.0681 45.9106 30.9946C47.4908 30.7689 48.4941 29.9801 49.2243 28.3998C49.648 27.4586 49.9183 26.3298 49.9963 25.2038C50.1106 23.2862 49.3414 22.1954 47.9535 22.2689C46.8749 22.307 45.8716 23.1338 44.754 24.8638L43.8287 30.8804Z" fill="#231F20"/>
<path d="M62.9422 35.0937H57.0449L59.7037 17.6775H65.6011L62.9422 35.0937ZM66.6796 12.825C66.6796 14.8949 65.1774 16.361 63.0955 16.361C61.2059 16.361 60.0521 15.1941 60.0521 13.2765C60.0521 11.397 61.6323 9.89014 63.6362 9.89014C65.4088 9.89014 66.6796 11.0951 66.6796 12.825Z" fill="#231F20"/>
<path d="M84.409 35.2433C82.9458 35.5071 82.1738 35.5452 81.2485 35.5071C80.0919 35.469 79.0133 34.9441 78.3584 34.1906C77.9347 33.701 77.7815 33.1761 77.7815 32.1969C76.0089 34.7537 74.5067 35.6567 72.0764 35.6567C68.4143 35.6567 66.2572 32.5722 66.6418 28.0217C67.2187 21.627 72.1155 16.8887 77.8957 17.1498C78.2413 17.1498 78.782 17.226 79.476 17.2994L80.7106 9.21289H86.6079L83.7958 27.5321L83.6035 29.1124C83.2942 31.1442 83.7568 31.8215 85.4931 31.7073L84.409 35.2433ZM78.782 21.9262C78.5117 21.85 78.3194 21.8146 78.2051 21.8146C77.0095 21.627 75.6996 21.9642 74.8913 22.5681C73.7347 23.5092 72.8484 25.4268 72.6561 27.3825C72.4638 29.3382 73.1578 30.467 74.5457 30.5431C75.6243 30.6193 76.5106 29.9039 77.8595 27.9863L78.782 21.9262Z" fill="#231F20"/>
<path d="M92.8876 35.0937H86.9902L89.649 17.6775H95.5464L92.8876 35.0937ZM96.6249 12.825C96.6249 14.8949 95.1227 16.361 93.0408 16.361C91.1512 16.361 89.9974 15.1941 89.9974 13.2765C89.9974 11.397 91.5777 9.89014 93.5815 9.89014C95.3541 9.89014 96.6249 11.0951 96.6249 12.825Z" fill="#231F20"/>
<path d="M109.537 21.8909H105.8L104.141 32.6485C103.564 36.4103 102.831 38.6679 101.558 40.5093C99.9386 42.8404 97.1627 43.9311 93.5424 43.6319C93.3501 43.6319 93.0797 43.5938 92.7704 43.5557L92.5391 39.8701H93.272C94.5819 39.8701 95.9699 39.2309 96.6248 38.2898C97.3188 37.2753 97.7424 35.9941 98.0908 33.5869L99.9023 21.8882H96.8199L97.4749 17.6749H100.557L100.711 16.7338C101.444 11.8813 103.91 9.32454 108.227 8.9111C109.537 8.79686 110.579 8.87302 112.274 9.24838L111.31 13.1978C111.039 13.1978 110.847 13.1597 110.694 13.1597C109.074 13.0482 107.879 13.5351 107.188 14.5143C106.764 15.1154 106.572 15.7193 106.223 17.6749H110.192L109.537 21.8909Z" fill="#231F20"/>
<path d="M124.14 17.6011L119.927 27.306L117.744 17.6011H111.811L115.841 34.0761C115.147 35.4688 114.837 36.0318 114.3 36.8233C113.104 38.5913 111.524 39.5324 109.79 39.5324C109.213 39.5324 108.826 39.4943 108.018 39.3447L108.673 43.558C109.057 43.6342 109.327 43.6696 109.52 43.6696C113.296 44.0449 115.919 42.7665 118.77 39.1571C120.041 37.5387 120.891 36.1107 123.087 31.8593L130.523 17.6011H124.14Z" fill="#231F20"/>
<path d="M118.299 13.3662L118.881 9.63433H120.498L119.486 16.0889L118.402 16.3092L115.662 12.5284L115.088 16.1787H113.475L114.486 9.75401L115.54 9.53369L118.299 13.3662Z" fill="#F79420"/>
<path d="M123.032 12.4576H124.955L124.751 13.785H122.828L122.46 16.1786H120.752L121.755 9.63428H125.64L125.434 11.0215H123.246L123.032 12.4576Z" fill="#F79420"/>
<path d="M128.902 16.1786H127.196L127.982 11.0215H126.182L126.396 9.63428H131.703L131.488 11.0215H129.699L128.902 16.1786Z" fill="#F79420"/>
<path d="M138.123 31.4597H132.345L131.08 33.9485H130.297L134.879 25.103H135.603L140.185 33.9485H139.402L138.123 31.4597ZM137.852 30.9184L135.235 25.8129L132.632 30.9184H137.852Z" fill="#808184"/>
<path d="M142.797 33.0397C142.1 32.3896 141.752 31.4431 141.752 30.1973V25.1055H142.477V30.1728C142.477 31.2608 142.758 32.0741 143.315 32.6127C143.876 33.1512 144.687 33.4205 145.749 33.4205C146.802 33.4205 147.607 33.1512 148.168 32.6127C148.728 32.0741 149.007 31.2608 149.007 30.1728V25.1055H149.731V30.1973C149.731 31.4431 149.38 32.3923 148.678 33.0397C147.975 33.6871 146.994 34.0135 145.732 34.0135C144.475 34.0135 143.497 33.6898 142.797 33.0397Z" fill="#808184"/>
<path d="M154.75 33.4315C153.967 33.0426 153.351 32.5094 152.9 31.8267C152.448 31.144 152.223 30.377 152.223 29.5256C152.223 28.6742 152.448 27.9072 152.9 27.2245C153.351 26.5418 153.967 26.0059 154.75 25.6197C155.534 25.2334 156.414 25.0376 157.39 25.0376C158.112 25.0376 158.775 25.141 159.383 25.3477C159.99 25.5544 160.506 25.859 160.932 26.2643L160.478 26.6805C159.681 25.9814 158.661 25.6306 157.418 25.6306C156.584 25.6306 155.823 25.7992 155.141 26.1365C154.458 26.4738 153.923 26.9389 153.533 27.5318C153.142 28.1248 152.95 28.7885 152.95 29.5229C152.95 30.2546 153.145 30.9182 153.533 31.5139C153.92 32.1069 154.458 32.5747 155.141 32.9093C155.823 33.2466 156.582 33.4152 157.418 33.4152C158.652 33.4152 159.67 33.0616 160.478 32.3544L160.932 32.7706C160.506 33.1758 159.987 33.4832 159.374 33.6926C158.761 33.9021 158.1 34.0082 157.39 34.0082C156.414 34.0136 155.534 33.8205 154.75 33.4315Z" fill="#808184"/>
<path d="M165.202 25.6851H161.615V25.103H169.514V25.6851H165.927V33.9512H165.199V25.6851H165.202Z" fill="#808184"/>
<path d="M171.363 25.103H172.088V33.9485H171.363V25.103Z" fill="#808184"/>
<path d="M177.197 33.426C176.409 33.0343 175.79 32.4958 175.341 31.8158C174.89 31.133 174.664 30.3714 174.664 29.5282C174.664 28.685 174.89 27.9234 175.341 27.2407C175.793 26.558 176.412 26.0222 177.197 25.6305C177.986 25.2388 178.867 25.043 179.845 25.043C180.821 25.043 181.704 25.2361 182.493 25.625C183.279 26.014 183.9 26.5471 184.349 27.2298C184.8 27.9126 185.026 28.6796 185.026 29.531C185.026 30.3823 184.8 31.1494 184.349 31.8321C183.897 32.5148 183.279 33.0506 182.493 33.4369C181.704 33.8231 180.823 34.019 179.845 34.019C178.867 34.0135 177.986 33.8177 177.197 33.426ZM182.108 32.9146C182.783 32.5774 183.312 32.1122 183.702 31.5193C184.09 30.9263 184.285 30.2626 184.285 29.5282C184.285 28.7966 184.09 28.1329 183.702 27.5372C183.312 26.9442 182.783 26.4791 182.108 26.1418C181.434 25.8046 180.681 25.6359 179.845 25.6359C179.009 25.6359 178.254 25.8046 177.576 26.1418C176.899 26.4791 176.364 26.9442 175.977 27.5372C175.587 28.1302 175.394 28.7938 175.394 29.5282C175.394 30.2599 175.589 30.9236 175.977 31.5193C176.364 32.1122 176.899 32.5801 177.576 32.9146C178.254 33.2519 179.012 33.4206 179.845 33.4206C180.681 33.4206 181.434 33.2519 182.108 32.9146Z" fill="#808184"/>
<path d="M195.711 25.103V33.9485H195.115L188.328 26.2645V33.9485H187.604V25.103H188.217L194.989 32.787V25.103H195.711Z" fill="#808184"/>
<path d="M212.375 33.9509L212.361 26.3811L208.192 32.7759H207.835L203.666 26.4056V33.9509H202.955V25.1055H203.568L208.022 31.9435L212.476 25.1055H213.072L213.086 33.9509H212.375Z" fill="#808184"/>
<path d="M222.775 31.4597H216.998L215.732 33.9485H214.949L219.531 25.103H220.256L224.838 33.9485H224.054L222.775 31.4597ZM222.505 30.9184L219.888 25.8129L217.285 30.9184H222.505Z" fill="#808184"/>
<path d="M233.618 33.9509L231.24 30.9943C230.889 31.0378 230.566 31.0568 230.273 31.0568H227.428V33.9509H226.703V25.1055H230.276C231.527 25.1055 232.511 25.3693 233.222 25.897C233.933 26.4247 234.289 27.1536 234.289 28.0893C234.289 28.7883 234.089 29.3759 233.685 29.8519C233.28 30.3279 232.706 30.6624 231.957 30.8555L234.445 33.9509H233.618ZM230.276 30.4883C231.338 30.4883 232.149 30.2789 232.709 29.8627C233.269 29.4466 233.548 28.8536 233.548 28.0866C233.548 27.3195 233.267 26.7293 232.709 26.3104C232.149 25.8943 231.338 25.6848 230.276 25.6848H227.431V30.4856H230.276V30.4883Z" fill="#808184"/>
<path d="M239.964 29.5907L237.729 31.6253V33.9509H237.004V25.1055H237.729V30.793L243.946 25.1055H244.83L240.446 29.1256L245.128 33.9536H244.247L239.964 29.5907Z" fill="#808184"/>
<path d="M253.937 33.3688V33.9509H247.064V25.1055H253.723V25.6875H247.789V29.1746H253.098V29.7431H247.789V33.3715H253.937V33.3688Z" fill="#808184"/>
<path d="M258.546 25.6851H254.959V25.103H262.857V25.6851H259.271V33.9512H258.543V25.6851H258.546Z" fill="#808184"/>
<path d="M21.9156 43.6808V41.2763C21.9156 40.6317 21.3749 40.104 20.7144 40.104H4.27933C3.61881 40.104 3.07812 40.6317 3.07812 41.2763V43.6808H21.9156Z" fill="#F79420"/>
<path d="M5.37239 15.9611C5.52289 16.8233 6.36735 17.4108 7.25084 17.2667L16.3198 15.7734C17.2033 15.6265 17.8053 14.8023 17.6575 13.9401L17.5907 13.5593C17.4402 12.6971 16.5957 12.1095 15.7122 12.2537L6.64327 13.747C5.75978 13.8939 5.15779 14.718 5.3055 15.5803L5.37239 15.9611Z" fill="white"/>
<path d="M9.11585 22.3559C9.69276 25.6961 8.71731 26.9609 8.71731 26.9609L17.8225 25.4621C17.8225 25.4621 16.7801 24.162 16.3063 21.4175C15.8326 18.673 16.3063 16.6929 16.3063 16.6929L7.20117 18.1916C7.20396 18.1943 8.53894 19.0158 9.11585 22.3559Z" fill="white"/>
<path d="M7.73791 29.6564L7.8048 30.0372C7.9553 30.8995 8.79976 31.487 9.68325 31.3428L18.7522 29.8496C19.6357 29.7027 20.2377 28.8785 20.09 28.0163L20.0231 27.6355C19.8726 26.7732 19.0281 26.1857 18.1446 26.3299L9.07568 27.8231C8.18941 27.9673 7.58741 28.7942 7.73791 29.6564Z" fill="white"/>
<path d="M8.07359 23.5988L7.77817 21.8852C7.61095 20.9169 6.66336 20.2586 5.67118 20.4218L0.144531 21.0801V26.7132L6.57696 25.6524C7.56635 25.4919 8.24081 24.5671 8.07359 23.5988Z" fill="white"/>
<path d="M22.0884 20.645C24.4518 19.353 26.4389 17.3211 26.4389 13.6763V13.5839C26.4389 8.50563 22.2779 5.22803 15.5138 5.22803H0.143412V21.0802L5.67006 20.4219C6.66224 20.2587 7.60983 20.917 7.77705 21.8853L8.07247 23.5989C8.23969 24.5672 7.56523 25.492 6.57306 25.6552L0.140625 26.716V37.5416H15.8901C23.362 37.5416 28.2811 34.5877 28.2811 28.6799V28.5874C28.2839 24.2463 25.9177 22.0757 22.0884 20.645ZM5.37185 15.9611L5.30497 15.5803C5.15447 14.7181 5.75646 13.8912 6.64273 13.7471L15.7117 12.2538C16.5952 12.1069 17.4424 12.6944 17.5901 13.5594L17.657 13.9402C17.8075 14.8024 17.2055 15.6293 16.3193 15.7735L7.2503 17.2667C6.36682 17.4109 5.51957 16.8234 5.37185 15.9611ZM7.20292 18.1943L16.3081 16.6955C16.3081 16.6955 15.8343 18.6757 16.3081 21.4202C16.7819 24.1647 17.8242 25.4648 17.8242 25.4648L8.71906 26.9635C8.71906 26.9635 9.69451 25.6987 9.1176 22.3586C8.5379 19.0157 7.20292 18.1943 7.20292 18.1943ZM18.7495 29.8495L9.68058 31.3427C8.7971 31.4896 7.94984 30.9021 7.80213 30.0371L7.73524 29.6563C7.58474 28.7941 8.18674 27.9672 9.07301 27.8231L18.142 26.3298C19.0254 26.1829 19.8727 26.7704 20.0204 27.6354L20.0873 28.0162C20.2378 28.8784 19.6358 29.7026 18.7495 29.8495Z" fill="#F79420"/>
</svg>
