<svg width="135" height="61" viewBox="0 0 135 61" fill="none" xmlns="http://www.w3.org/2000/svg">
<path d="M127.334 0H6.58537C2.94837 0 0 2.9525 0 6.59459V54.3797C0 58.0218 2.94837 60.9743 6.58537 60.9743H127.334C130.971 60.9743 133.92 58.0218 133.92 54.3797V6.59459C133.92 2.9525 130.971 0 127.334 0Z" fill="white"/>
<path d="M111.576 50.052H22.3405C20.1816 50.0456 18.113 49.1801 16.5865 47.6445C15.0601 46.1088 14.1997 44.0279 14.1934 41.8561V19.1183C14.1997 16.9465 15.0601 14.8656 16.5865 13.33C18.113 11.7943 20.1816 10.9287 22.3405 10.9224H111.576C113.735 10.9287 115.803 11.7943 117.33 13.33C118.856 14.8656 119.717 16.9465 119.723 19.1183V41.8566C119.716 44.0284 118.856 46.1091 117.33 47.6447C115.803 49.1802 113.735 50.0456 111.576 50.052Z" fill="white"/>
<path d="M34.0083 46.3945C34.0083 46.3945 43.3845 43.1922 43.3845 31.4195V27.181C43.385 26.9591 43.3015 26.7454 43.1512 26.5832C43.0007 26.421 42.7945 26.3225 42.5745 26.3079C39.6198 26.2342 36.7088 25.5732 34.0089 24.3633C31.313 25.5731 28.4058 26.2338 25.4547 26.3079C25.2347 26.3225 25.0285 26.421 24.878 26.5832C24.7275 26.7454 24.644 26.9591 24.6445 27.181V31.4195C24.644 43.1922 34.0083 46.3945 34.0083 46.3945Z" fill="#00ADEE"/>
<path d="M37.7936 32.9686C37.6894 31.676 36.6361 31.2332 35.2006 31.1053V29.3354H34.1244V31.0702H33.2565V29.3354H32.1686V31.0822H30.0273V32.2475H31.4164V37.9885H30.2587V39.2926H32.1108V41.0977H33.1756V39.2915H34.0345V41.0596H35.1223V39.2915C36.9395 39.1982 38.2139 38.7558 38.3857 37.0452C38.4978 36.5672 38.4164 36.0641 38.1598 35.6463C37.9029 35.2287 37.4919 34.9306 37.0167 34.818C36.9602 34.8045 36.903 34.7938 36.845 34.7857C37.18 34.6312 37.4543 34.3686 37.6242 34.0395C37.7941 33.7105 37.8499 33.3337 37.7828 32.9691L37.7936 32.9686ZM36.2657 36.8114C36.2657 38.162 33.9502 37.976 33.2445 37.976V35.5879C33.9733 35.6001 36.2657 35.4025 36.2657 36.8114ZM35.8139 33.4345C35.8139 34.6573 33.9153 34.5058 33.3022 34.4942V32.3281C33.8811 32.3396 35.8139 32.1535 35.8139 33.4345Z" fill="white"/>
<path d="M61.9963 38.9658C62.0159 39.7777 61.8243 40.5806 61.4403 41.295C61.0846 41.9221 60.5793 42.4504 59.9701 42.8323C59.3322 43.2371 58.6261 43.5213 57.8867 43.6708C57.0997 43.8448 56.2963 43.9308 55.4906 43.9272H48.6958V26.7946H55.4906C56.1704 26.7987 56.8484 26.8652 57.5163 26.9928C58.1774 27.1181 58.8119 27.3585 59.3913 27.7029C59.9542 28.0268 60.4277 28.4871 60.7688 29.0421C61.1399 29.7007 61.3167 30.4522 61.2783 31.2082C61.3086 32.0535 61.033 32.8811 60.5026 33.5374C59.9723 34.1738 59.268 34.6394 58.4769 34.8765C58.953 34.9553 59.414 35.1084 59.843 35.3303C60.2759 35.5377 60.6679 35.8218 61.0006 36.169C61.3149 36.5094 61.5659 36.9038 61.7414 37.3336C61.9395 37.8536 62.0263 38.4098 61.9963 38.9658ZM57.3663 31.7693C57.3755 31.5117 57.3133 31.2569 57.1867 31.033C57.0599 30.8092 56.8737 30.6254 56.6488 30.5021C56.0387 30.1992 55.3601 30.0629 54.6811 30.1064H52.6772V33.5996H54.8884C55.5063 33.6398 56.1213 33.4852 56.6477 33.1573C56.8661 33.0015 57.0421 32.7929 57.1595 32.5507C57.2769 32.3085 57.3317 32.0406 57.3192 31.7716L57.3663 31.7693ZM57.9221 38.5816C57.9504 38.2845 57.8908 37.9856 57.7507 37.7224C57.6108 37.4592 57.3964 37.2436 57.135 37.1026C56.468 36.7952 55.7381 36.6514 55.0051 36.6834H52.6899V40.6177H55.0051C55.3428 40.6144 55.6796 40.5833 56.0122 40.5244C56.3393 40.4764 56.6562 40.374 56.9499 40.2214C57.2507 40.0714 57.5011 39.8358 57.6699 39.5438C57.8386 39.252 57.9183 38.9165 57.8992 38.5793L57.9221 38.5816ZM67.4829 28.0313C67.4808 28.3289 67.4179 28.623 67.2978 28.8952C67.1877 29.1571 67.0219 29.3917 66.8118 29.5823C66.6054 29.7835 66.3617 29.9419 66.0944 30.0482C65.8145 30.1597 65.5155 30.2149 65.2144 30.2113C64.9154 30.2197 64.6176 30.1674 64.339 30.0573C64.0606 29.9473 63.8069 29.7818 63.5936 29.5708C63.3871 29.3725 63.2232 29.1339 63.1119 28.8694C63.0004 28.6052 62.9438 28.3206 62.9456 28.0336C62.9446 27.7451 63.003 27.4595 63.1173 27.1949C63.2192 26.9313 63.3819 26.6957 63.5919 26.5078C63.8071 26.3091 64.0536 26.1477 64.3213 26.0303C64.6025 25.9072 64.906 25.8437 65.2128 25.8443C65.5139 25.8406 65.8127 25.8959 66.0927 26.0072C66.3599 26.1137 66.6037 26.272 66.81 26.4733C67.0203 26.6637 67.1861 26.8983 67.2962 27.1603C67.4177 27.4345 67.4812 27.7311 67.4829 28.0313ZM63.2347 43.9612V31.8855H67.1936V43.9612H63.2347ZM74.3588 34.846V39.5037C74.3241 39.955 74.438 40.405 74.683 40.7847C74.8308 40.9394 75.0123 41.0576 75.2131 41.1303C75.4138 41.2032 75.6285 41.2282 75.8405 41.204C76.0447 41.2201 76.2497 41.2201 76.4538 41.204C76.6403 41.1811 76.8231 41.1341 76.9976 41.064V43.975C76.656 44.082 76.3079 44.1678 75.9556 44.2312C75.5424 44.3008 75.1242 44.3359 74.7052 44.3361C74.0179 44.3519 73.3328 44.2495 72.6797 44.0332C72.1791 43.8543 71.7298 43.5546 71.3714 43.1599C71.0342 42.7654 70.7889 42.3 70.6534 41.7978C70.5324 41.1886 70.4939 40.5658 70.539 39.9461V34.846H68.5711V31.8855H70.4697V28.7062H74.3588V31.8855H77.1718V34.846H74.3588ZM91.4791 43.9831C90.2808 44.2675 89.0526 44.4045 87.8213 44.3908C86.5381 44.4085 85.2627 44.1874 84.0592 43.7388C82.9526 43.336 81.9396 42.71 81.0822 41.8992C80.2493 41.0922 79.5912 40.1208 79.1492 39.0459C78.2151 36.6585 78.2151 34.0035 79.1492 31.6159C79.5967 30.5352 80.2674 29.5627 81.1171 28.7626C81.974 27.9836 82.9779 27.3857 84.069 27.0043C85.2336 26.579 86.4644 26.366 87.7034 26.3754C88.9838 26.3648 90.2567 26.5735 91.4678 26.9921C92.5122 27.34 93.4712 27.9076 94.2806 28.6573L91.6876 31.6385C91.2444 31.1393 90.6996 30.7421 90.0903 30.4739C89.4029 30.1602 88.6573 29.9975 87.9026 29.9965C87.2145 29.9854 86.5317 30.1203 85.8987 30.3921C85.2924 30.6559 84.7463 31.0422 84.2942 31.5269C83.8421 32.0116 83.4939 32.5845 83.2708 33.2102C83.0109 33.894 82.8813 34.6209 82.889 35.3528C82.8811 36.0933 82.9987 36.8298 83.2366 37.5306C83.4424 38.1663 83.782 38.7503 84.2321 39.2423C84.6855 39.7504 85.2476 40.1487 85.8758 40.4069C86.5837 40.6843 87.3389 40.8187 88.0984 40.8025C88.5597 40.8042 89.0202 40.7692 89.4759 40.6977C89.872 40.6187 90.2597 40.5015 90.6336 40.3482V37.1689H87.3702V33.8283H94.4083V42.9112C93.4778 43.3845 92.4944 43.7442 91.4791 43.9831ZM109.27 37.8709C109.281 38.7913 109.1 39.7037 108.738 40.5491C108.403 41.3227 107.91 42.0169 107.291 42.5869C106.67 43.1484 105.952 43.5904 105.173 43.8909C103.508 44.497 101.685 44.497 100.02 43.8909C99.238 43.5958 98.5191 43.1532 97.9018 42.5869C97.2901 42.0135 96.8016 41.3199 96.4666 40.5491C95.7624 38.838 95.7624 36.9155 96.4666 35.2042C96.8047 34.4417 97.293 33.7559 97.9018 33.1884C98.5184 32.6323 99.2383 32.2048 100.02 31.9305C101.69 31.3561 103.503 31.3561 105.173 31.9305C105.952 32.2103 106.671 32.6373 107.291 33.1884C107.902 33.7382 108.394 34.4079 108.738 35.1564C109.105 36.0129 109.287 36.9383 109.27 37.8709ZM105.462 37.8709C105.463 37.4742 105.396 37.0805 105.265 36.7063C105.143 36.3477 104.954 36.0155 104.71 35.7272C104.462 35.4395 104.159 35.2057 103.818 35.04C103.433 34.8638 103.015 34.7726 102.591 34.7726C102.168 34.7726 101.75 34.8638 101.364 35.04C101.026 35.2027 100.725 35.437 100.485 35.7272C100.247 36.0167 100.067 36.3489 99.9527 36.7063C99.8317 37.0827 99.7693 37.4754 99.7676 37.8709C99.768 38.2663 99.8302 38.6591 99.952 39.035C100.068 39.4043 100.252 39.7482 100.496 40.0481C100.739 40.3462 101.043 40.5882 101.387 40.7582C101.773 40.9346 102.191 41.0258 102.614 41.0258C103.038 41.0258 103.456 40.9346 103.841 40.7582C104.185 40.5882 104.489 40.3462 104.733 40.0481C104.976 39.7482 105.161 39.4043 105.277 39.035C105.404 38.6603 105.466 38.2667 105.462 37.8709ZM24.7246 18.9563L25.4116 18.1305C25.8175 18.4719 26.3278 18.662 26.8568 18.6684C27.1877 18.6684 27.3657 18.5532 27.3657 18.3481C27.3657 18.1626 27.2191 18.0602 26.6146 17.9191C25.6665 17.7013 24.9342 17.4324 24.9342 16.4977C24.9342 15.6653 25.5898 15.0635 26.6592 15.0635C27.3207 15.0383 27.9695 15.2493 28.4913 15.659L27.8741 16.5362C27.5122 16.2656 27.0772 16.1115 26.6266 16.0944C26.3272 16.0944 26.1811 16.2223 26.1811 16.3956C26.1811 16.6007 26.3341 16.6899 26.9513 16.831C27.976 17.0551 28.6116 17.3881 28.6116 18.24C28.6116 19.1556 27.8925 19.7 26.8104 19.7C26.0481 19.7175 25.3059 19.4529 24.7246 18.9563ZM29.0015 17.8937C28.9914 17.6585 29.0291 17.4237 29.1119 17.2034C29.1949 16.9834 29.3215 16.7824 29.484 16.6129C29.6465 16.4435 29.8416 16.309 30.0573 16.2177C30.2731 16.1264 30.5051 16.0801 30.739 16.0817C31.9293 16.0817 32.4767 16.959 32.4767 17.9772C32.4767 18.0538 32.4767 18.1437 32.4705 18.2273H30.1666C30.2012 18.3966 30.2957 18.5478 30.4325 18.6524C30.5693 18.7571 30.7394 18.8084 30.9109 18.7969C31.0555 18.7947 31.1982 18.7624 31.3297 18.7017C31.4613 18.6411 31.5787 18.5534 31.6746 18.4444L32.3427 19.0013C32.1672 19.2301 31.9399 19.4135 31.6796 19.536C31.4193 19.6584 31.1338 19.7166 30.8467 19.7058C30.6042 19.7213 30.361 19.6855 30.133 19.6006C29.9052 19.5155 29.6974 19.3835 29.5235 19.2127C29.3495 19.0419 29.2132 18.8361 29.1233 18.6089C29.0332 18.3817 28.9918 18.1381 29.0015 17.8937ZM31.3437 17.6057C31.2989 17.2216 31.0764 16.9786 30.7454 16.9786C30.427 16.9786 30.2105 17.2285 30.147 17.6057H31.3437ZM32.8523 17.8954C32.8513 17.6537 32.8987 17.4143 32.9919 17.1914C33.0849 16.9685 33.2217 16.7667 33.3939 16.5982C33.5663 16.4297 33.7704 16.2978 33.9945 16.2104C34.2187 16.1231 34.4579 16.0821 34.6981 16.0898C34.9897 16.0745 35.2801 16.1383 35.5388 16.2745C35.7974 16.4108 36.0149 16.6145 36.1683 16.8645L35.36 17.4537C35.2935 17.348 35.2013 17.2615 35.092 17.202C34.9828 17.1426 34.8601 17.1124 34.7358 17.1144C34.5434 17.1329 34.3643 17.2224 34.2334 17.3657C34.1023 17.5089 34.0286 17.6957 34.0263 17.8904C34.024 18.085 34.0931 18.2736 34.2207 18.42C34.3481 18.5664 34.525 18.6602 34.7171 18.6834C34.8463 18.6792 34.9728 18.6437 35.0859 18.5802C35.1988 18.5168 35.2949 18.4269 35.3662 18.3183L36.1873 18.9138C36.0246 19.1711 35.7968 19.3803 35.5272 19.5198C35.2577 19.6594 34.9561 19.7244 34.6535 19.7081C34.4161 19.7109 34.1805 19.666 33.9606 19.576C33.7406 19.486 33.5409 19.3525 33.3732 19.1836C33.2052 19.0147 33.0727 18.8137 32.9833 18.5924C32.8938 18.3712 32.8493 18.1343 32.8523 17.8954ZM36.588 18.4248V16.1584H37.7972V18.0326C37.7972 18.4104 37.9948 18.6153 38.2873 18.6153C38.3599 18.6153 38.4319 18.5995 38.4979 18.569C38.5641 18.5387 38.6229 18.4943 38.6706 18.4391C38.7182 18.3839 38.7536 18.3189 38.7742 18.2489C38.7947 18.1788 38.8002 18.1049 38.79 18.0326V16.1566H39.9992V19.6205H38.79V19.1464C38.6746 19.3145 38.5208 19.4524 38.3415 19.5482C38.162 19.6439 37.9625 19.695 37.7594 19.697C37.5954 19.7046 37.4317 19.6763 37.2799 19.6136C37.128 19.551 36.9915 19.4558 36.8799 19.3347C36.7684 19.2135 36.6845 19.0692 36.6341 18.9121C36.5837 18.755 36.5679 18.5886 36.588 18.4248ZM40.6484 16.1584H41.8576V16.8564C41.9259 16.6244 42.0711 16.423 42.269 16.2856C42.4669 16.1481 42.7056 16.0829 42.9453 16.1007V17.3823H42.8434C42.2137 17.3823 41.8569 17.7475 41.8569 18.5474V19.6233H40.6479L40.6484 16.1584ZM43.1687 17.8937C43.1587 17.6585 43.1962 17.4237 43.2792 17.2034C43.3622 16.9834 43.4888 16.7824 43.6513 16.6129C43.8138 16.4435 44.0089 16.309 44.2245 16.2177C44.4404 16.1264 44.6722 16.0801 44.9063 16.0817C46.0966 16.0817 46.644 16.959 46.644 17.9772C46.644 18.0538 46.644 18.1437 46.6376 18.2273H44.3332C44.3678 18.3966 44.4623 18.5478 44.5991 18.6524C44.7361 18.7571 44.906 18.8084 45.0775 18.7969C45.2222 18.7947 45.3648 18.7624 45.4963 18.7017C45.6279 18.6411 45.7453 18.5534 45.8412 18.4444L46.5093 19.0013C46.3338 19.2301 46.1065 19.4135 45.8462 19.536C45.5861 19.6584 45.3004 19.7166 45.0133 19.7058C44.7708 19.7213 44.5278 19.6853 44.2998 19.6003C44.0719 19.5153 43.8643 19.3831 43.6905 19.2123C43.5166 19.0415 43.3803 18.8359 43.2904 18.6088C43.2005 18.3816 43.159 18.1381 43.1687 17.8937ZM45.5108 17.6057C45.4662 17.2216 45.2435 16.9786 44.9125 16.9786C44.5943 16.9786 44.3778 17.2285 44.3143 17.6057H45.5108ZM47.032 17.8937C47.032 16.7666 47.7322 16.0817 48.547 16.0817C48.7493 16.0777 48.95 16.1207 49.1331 16.2073C49.3163 16.2939 49.4772 16.4218 49.6033 16.5811V14.9482H50.8125V19.6222H49.6033V19.1614C49.4841 19.3294 49.3265 19.4659 49.1438 19.5595C48.9609 19.6532 48.7584 19.7011 48.5533 19.6993C47.7387 19.6993 47.032 19.014 47.032 17.8937ZM49.6227 17.881C49.6059 17.7449 49.5503 17.6164 49.4625 17.5112C49.375 17.4061 49.2589 17.3287 49.1285 17.2884C48.9981 17.2478 48.8588 17.2461 48.7276 17.2836C48.5962 17.3208 48.4784 17.3955 48.3883 17.4986C48.2982 17.6016 48.2395 17.7287 48.2195 17.8644C48.1995 18.0002 48.2187 18.1389 48.2752 18.2639C48.3317 18.3888 48.4227 18.4947 48.5376 18.5689C48.6525 18.643 48.7862 18.6821 48.9225 18.6816C49.022 18.6785 49.1196 18.6549 49.2095 18.6124C49.2994 18.5698 49.3796 18.5092 49.4452 18.4342C49.5109 18.359 49.5605 18.2713 49.5911 18.1761C49.6216 18.081 49.6324 17.9806 49.6227 17.881ZM53.2951 15.1406H55.58C55.7991 15.1226 56.0196 15.149 56.2283 15.2182C56.4371 15.2875 56.6299 15.3982 56.7953 15.5438C56.8907 15.6402 56.9654 15.7553 57.0146 15.8819C57.0639 16.0085 57.0867 16.144 57.0816 16.2799C57.0861 16.4978 57.022 16.7118 56.8987 16.891C56.7754 17.0704 56.5991 17.2059 56.3946 17.2786C56.649 17.3271 56.8778 17.4653 57.0398 17.6684C57.202 17.8713 57.2869 18.1259 57.2792 18.3862C57.2792 19.1545 56.6557 19.6222 55.5925 19.6222H53.2951V15.1406ZM55.2743 16.9261C55.6498 16.9261 55.8599 16.7982 55.8599 16.5229C55.8599 16.2799 55.6692 16.1388 55.3 16.1388H54.4984V16.9261H55.2743ZM55.4523 18.6229C55.8278 18.6229 56.0443 18.4754 56.0443 18.2001C56.0443 17.9565 55.853 17.797 55.4397 17.797H54.4979V18.6229H55.4523ZM57.6228 20.3652L57.9983 19.5134C58.1569 19.6172 58.3383 19.681 58.5268 19.6988C58.5818 19.7033 58.6369 19.6926 58.6863 19.6677C58.7357 19.6428 58.7774 19.6047 58.8067 19.5577L57.4573 16.1595H58.7237L59.4107 18.2467L60.06 16.1595H61.3012L60.0416 19.5404C59.7423 20.3468 59.4176 20.6676 58.7306 20.6676C58.3414 20.6659 57.9593 20.5617 57.6228 20.3652Z" fill="black"/>
</svg>
