<svg width="135" height="61" viewBox="0 0 135 61" fill="none" xmlns="http://www.w3.org/2000/svg">
<path d="M128.415 0H6.58537C2.94837 0 0 3.03451 0 6.77778V54.2222C0 57.9655 2.94837 61 6.58537 61H128.415C132.052 61 135 57.9655 135 54.2222V6.77778C135 3.03451 132.052 0 128.415 0Z" fill="white"/>
<path d="M112.566 49.8166H22.434C20.2535 49.8103 18.1642 48.9558 16.6224 47.4396C15.0805 45.9236 14.2115 43.8691 14.2051 41.7249V19.2762C14.2115 17.1321 15.0805 15.0777 16.6224 13.5615C18.1642 12.0454 20.2535 11.1909 22.434 11.1846H112.566C114.746 11.1909 116.836 12.0454 118.377 13.5615C119.919 15.0777 120.788 17.1321 120.794 19.2762V41.7249C120.788 43.8691 119.919 45.9236 118.377 47.4396C116.836 48.9558 114.746 49.8103 112.566 49.8166Z" fill="white"/>
<path d="M27.0586 22.0378H31.5831V38.0085H27.0586V22.0378ZM33.3231 35.6356L35.8288 32.6923C37.3074 33.9088 39.1679 34.5857 41.0958 34.6087C42.3026 34.6087 42.952 34.1982 42.952 33.468C42.952 32.806 42.4183 32.441 40.2139 31.9395C36.7569 31.1639 34.0881 30.2057 34.0881 26.8746C34.0881 23.9087 36.4781 21.7637 40.3758 21.7637C42.7882 21.6729 45.1555 22.4243 47.0583 23.8853L44.8078 27.0129C43.4881 26.0489 41.9028 25.5003 40.2601 25.4388C39.1696 25.4388 38.6358 25.8937 38.6358 26.5113C38.6358 27.2415 39.1926 27.561 41.4433 28.0626C45.1791 28.8586 47.4991 30.0476 47.4991 33.0819C47.4991 36.3447 44.8771 38.2838 40.9326 38.2838C38.1518 38.3482 35.4437 37.4058 33.3231 35.6356ZM49.1234 30.0204C49.1234 25.4343 52.8823 21.7183 57.8942 21.7183C62.906 21.7183 66.618 25.3916 66.618 30.0204C66.618 34.6064 62.8593 38.3253 57.8473 38.3253C52.8354 38.3253 49.1234 34.6547 49.1234 30.0204ZM62.0243 30.0204C62.0461 29.4656 61.9546 28.912 61.7552 28.3927C61.5557 27.8732 61.2523 27.3984 60.8629 26.9965C60.4734 26.5944 60.006 26.2733 59.4881 26.052C58.9703 25.8307 58.4125 25.7139 57.848 25.7083C55.3885 25.7083 53.7422 27.6707 53.7422 30.0204C53.7194 30.5734 53.8098 31.1253 54.0076 31.6436C54.2054 32.1618 54.5067 32.6359 54.8938 33.0377C55.2808 33.4396 55.7459 33.7612 56.2614 33.9835C56.7769 34.206 57.3325 34.3244 57.8954 34.3324C60.3791 34.3351 62.0243 32.3734 62.0243 30.0204Z" fill="black"/>
<path d="M71.6299 28.0545L72.2852 27.1066C72.5848 27.3625 72.9679 27.5038 73.3648 27.5047C73.943 27.5047 74.2501 27.1066 74.315 26.4715C74.0265 26.7367 73.6446 26.8814 73.2498 26.8747C73.0301 26.8935 72.809 26.8662 72.6011 26.7947C72.393 26.7232 72.2029 26.6091 72.043 26.46C71.8831 26.3107 71.7574 26.1299 71.6739 25.9295C71.5904 25.7289 71.5512 25.5132 71.5588 25.2966C71.5585 25.045 71.6115 24.7959 71.7147 24.5655C71.8178 24.3352 71.9686 24.1285 72.1576 23.9585C72.3466 23.7887 72.5695 23.6596 72.812 23.5793C73.0547 23.499 73.3117 23.4695 73.5665 23.4924C73.8518 23.4731 74.1378 23.5149 74.4048 23.6152C74.672 23.7154 74.9137 23.8713 75.1134 24.0724C75.3367 24.3237 75.5054 24.617 75.6093 24.9345C75.7134 25.2522 75.7502 25.5872 75.7178 25.9193C75.7178 27.5399 74.8973 28.6437 73.3863 28.6437C72.7486 28.656 72.127 28.4474 71.6299 28.0545ZM74.3357 25.2312C74.3377 25.1395 74.3201 25.0482 74.2842 24.9635C74.2481 24.8788 74.1946 24.8024 74.1269 24.739C74.0593 24.6758 73.9788 24.6271 73.8909 24.5961C73.8029 24.5651 73.7094 24.5526 73.6162 24.5592C73.4847 24.5672 73.3584 24.6129 73.2529 24.6905C73.1474 24.7681 73.0672 24.8744 73.0222 24.9962C72.9771 25.118 72.9692 25.25 72.9994 25.3763C73.0297 25.5025 73.0967 25.6172 73.1921 25.7065C73.2876 25.7958 73.4076 25.8556 73.5374 25.8788C73.6669 25.902 73.8008 25.8875 73.9221 25.8371C74.0436 25.7867 74.1474 25.7024 74.2208 25.5948C74.2942 25.4872 74.3342 25.3608 74.3357 25.2312ZM76.307 26.0661C76.307 24.6649 77.2138 23.4907 78.6457 23.4907C80.0775 23.4907 80.9698 24.6512 80.9698 26.0661C80.9698 27.4672 80.0706 28.642 78.6312 28.642C77.1918 28.642 76.307 27.4814 76.307 26.0661ZM79.5668 26.0661C79.5668 25.2807 79.1852 24.7076 78.6312 24.7076C78.0772 24.7076 77.71 25.2597 77.71 26.0661C77.71 26.8587 78.0841 27.4245 78.6457 27.4245C79.2071 27.4245 79.5668 26.8662 79.5668 26.0661ZM81.5595 26.0661C81.5595 24.6649 82.4663 23.4907 83.8981 23.4907C85.33 23.4907 86.2223 24.6512 86.2223 26.0661C86.2223 27.4672 85.323 28.642 83.8837 28.642C82.4443 28.642 81.5595 27.4814 81.5595 26.0661ZM84.8193 26.0661C84.8193 25.2807 84.4376 24.7076 83.8837 24.7076C83.3297 24.7076 82.9625 25.2597 82.9625 26.0661C82.9625 26.8587 83.3366 27.4245 83.8981 27.4245C84.4595 27.4245 84.8193 26.8662 84.8193 26.0661ZM87.5823 24.8361L86.7335 25.0272L86.4674 23.9655L87.9425 23.5556H88.9575V28.5442H87.583L87.5823 24.8361ZM89.7907 24.7149H91.2156V26.095H89.7907V24.7149ZM89.7907 27.1629H91.2156V28.543H89.7907V27.1629ZM91.7986 27.5087L93.6838 26.0933C94.1585 25.7397 94.3315 25.4991 94.3315 25.2017C94.3333 25.1309 94.3196 25.0606 94.2913 24.9953C94.263 24.9303 94.2209 24.8718 94.1675 24.8242C94.1143 24.7764 94.0511 24.7405 93.9826 24.719C93.914 24.6975 93.8414 24.6907 93.7699 24.699C93.4316 24.699 93.1656 24.8901 92.7695 25.3359L91.8269 24.5648C92.0449 24.2276 92.349 23.9521 92.7085 23.766C93.0683 23.5798 93.4713 23.4895 93.8774 23.5037C94.9762 23.5037 95.7343 24.1474 95.7343 25.096C95.7343 25.8887 95.3242 26.306 94.5686 26.8298L93.7051 27.424H95.7869V28.5418H91.8003L91.7986 27.5087ZM96.3461 26.0661C96.3461 24.6649 97.2529 23.4907 98.6848 23.4907C100.117 23.4907 101.009 24.6512 101.009 26.0661C101.009 27.4672 100.109 28.642 98.6703 28.642C97.2315 28.642 96.3461 27.4814 96.3461 26.0661ZM99.6059 26.0661C99.6059 25.2807 99.2243 24.7076 98.6703 24.7076C98.1163 24.7076 97.749 25.2597 97.749 26.0661C97.749 26.8587 98.1232 27.4245 98.6848 27.4245C99.2462 27.4245 99.6059 26.8662 99.6059 26.0661ZM102.368 24.8361L101.519 25.0272L101.253 23.9655L102.729 23.5556H103.743V28.5442H102.369L102.368 24.8361ZM104.369 27.8578L105.167 26.9377C105.496 27.2561 105.93 27.4472 106.391 27.4757C106.853 27.4757 107.132 27.2483 107.132 26.8814C107.132 26.5278 106.83 26.3082 106.391 26.3082C106.104 26.3146 105.824 26.4005 105.585 26.5563L104.757 26.1013L104.901 23.5896H108.268V24.7219H106.002L105.958 25.4718C106.209 25.3515 106.485 25.291 106.764 25.2949C106.987 25.2727 107.212 25.2975 107.424 25.3678C107.636 25.4379 107.83 25.5518 107.994 25.7019C108.157 25.8521 108.286 26.0347 108.372 26.2379C108.458 26.441 108.499 26.6598 108.492 26.8797C108.492 27.9835 107.635 28.6425 106.41 28.6425C106.034 28.652 105.659 28.5874 105.309 28.4527C104.958 28.318 104.639 28.1157 104.369 27.8578ZM70.4572 34.5564C70.4528 34.214 70.5188 33.8741 70.651 33.5572C70.7834 33.2405 70.9795 32.9531 71.2274 32.7127C71.4753 32.4721 71.7702 32.2833 72.094 32.1574C72.418 32.0317 72.7644 31.9714 73.1126 31.9804C73.5268 31.9636 73.9386 32.0508 74.3089 32.2342C74.6791 32.4175 74.9957 32.6907 75.2285 33.0279L74.2068 33.8063C74.0825 33.6302 73.917 33.4862 73.7241 33.3864C73.5313 33.2866 73.3168 33.2341 73.0988 33.2331C72.7682 33.2702 72.463 33.4254 72.2415 33.6695C72.02 33.9135 71.8975 34.2292 71.8975 34.5564C71.8975 34.8834 72.02 35.1991 72.2415 35.4433C72.463 35.6873 72.7682 35.8427 73.0988 35.8796C73.3239 35.8784 73.5453 35.823 73.7435 35.7181C73.9417 35.6132 74.1106 35.4621 74.2356 35.2779L75.2865 36.0138C74.9654 36.4672 74.5064 36.8088 73.9753 36.9893C73.4442 37.1696 72.8685 37.1794 72.3314 37.0173C71.7942 36.8551 71.3234 36.5294 70.9865 36.0872C70.6499 35.6449 70.4647 35.1088 70.4577 34.5564H70.4572ZM75.8826 32.08H79.9341V33.2473H77.2647V33.9974H79.6825V35.0778H77.2647V35.863H79.9716V37.0305H75.8844L75.8826 32.08ZM80.6817 32.08H83.0636C83.3593 32.0568 83.6566 32.0917 83.9383 32.1827C84.22 32.2738 84.4805 32.4192 84.7042 32.6105C84.8881 32.8103 85.0209 33.0502 85.0919 33.3105C85.1629 33.5708 85.1696 33.8439 85.112 34.1072C85.0544 34.3707 84.9337 34.6169 84.7602 34.8253C84.5865 35.0339 84.365 35.1988 84.1138 35.3064L85.3155 37.0329H83.7039L82.6889 35.5328H82.0771V37.0329H80.6812L80.6817 32.08ZM82.9989 34.4575C83.4737 34.4575 83.7472 34.2299 83.7472 33.8558C83.7472 33.4669 83.4581 33.2685 82.9913 33.2685H82.0776V34.4575H82.9989ZM87.0856 33.2825H85.5746V32.08H89.9932V33.2825H88.4816V37.0356H87.0856V33.2825ZM90.6328 32.08H92.0357V37.0334H90.6328V32.08ZM92.9568 32.08H96.9862V33.2825H94.3504V34.1248H96.7324V35.262H94.3504V37.031H92.9568V32.08ZM97.6479 32.08H99.0514V37.0334H97.6479V32.08ZM99.9719 32.08H104.023V33.2473H101.355V33.9974H103.773V35.0778H101.355V35.863H104.061V37.0305H99.9737L99.9719 32.08ZM104.769 32.08H106.712C108.511 32.08 109.555 33.099 109.555 34.5422C109.555 35.9716 108.497 37.0329 106.684 37.0329H104.769V32.08ZM106.736 35.8164C106.913 35.8298 107.091 35.8069 107.259 35.7493C107.427 35.6917 107.581 35.6005 107.712 35.4818C107.843 35.3628 107.947 35.2186 108.018 35.0583C108.089 34.8979 108.126 34.7248 108.126 34.5498C108.126 34.3748 108.089 34.2018 108.018 34.0413C107.947 33.881 107.843 33.7368 107.712 33.6179C107.581 33.4991 107.427 33.4079 107.259 33.3503C107.091 33.2927 106.913 33.2698 106.736 33.2832H106.167V35.8164H106.736Z" fill="#FA4A29"/>
</svg>
