<svg width="160" height="48" viewBox="0 0 160 48" fill="none" xmlns="http://www.w3.org/2000/svg">
<path d="M26.8078 48.1209V45.0969C26.8078 44.2855 26.1476 43.6214 25.3409 43.6214H5.28531C4.47857 43.6214 3.81836 44.2855 3.81836 45.0969V48.1209H26.8078Z" fill="#F79420"/>
<path d="M50.2916 4.76346H57.4882L55.5127 18.1538C57.4882 15.6465 59.4638 14.652 62.0979 14.8418C66.2377 15.1264 68.5417 18.4858 68.3076 23.785C67.932 32.1607 62.2866 38.0275 54.62 38.0275C51.7501 38.0275 49.116 37.5074 45.6348 36.23L50.2916 4.76346ZM53.4428 32.0167C54.5712 32.2539 55.1826 32.2539 55.9826 32.159C57.911 31.8744 59.1337 30.8817 60.028 28.8945C60.5451 27.712 60.8752 26.2923 60.9695 24.8726C61.111 22.4602 60.1695 21.088 58.4769 21.1828C57.1598 21.2303 55.9371 22.2705 54.5729 24.4474L53.4428 32.0167Z" fill="#F79420"/>
<path d="M76.7728 37.3159H69.5762L72.8216 15.4092H80.0183L76.7728 37.3159ZM81.3353 9.30534C81.3353 11.9075 79.5012 13.7524 76.9614 13.7524C74.6574 13.7524 73.2461 12.2853 73.2461 9.87287C73.2461 7.50619 75.1745 5.61386 77.62 5.61386C79.7825 5.61386 81.3353 7.1284 81.3353 9.30534Z" fill="#F79420"/>
<path d="M102.972 37.5057C101.185 37.8377 100.244 37.8835 99.1154 37.8377C97.704 37.7903 96.387 37.1279 95.587 36.1826C95.0699 35.5676 94.8813 34.9052 94.8813 33.6753C92.7171 36.8924 90.883 38.0275 87.9188 38.0275C83.4505 38.0275 80.8164 34.1479 81.2863 28.4218C81.992 20.3781 87.9659 14.4165 95.0211 14.7469C95.4438 14.7469 96.1023 14.8418 96.9495 14.9366L98.4552 4.76346H105.652L102.218 27.8069L101.982 29.7941C101.606 32.3488 102.171 33.2009 104.288 33.0586L102.972 37.5057ZM96.104 20.7559C95.7756 20.6611 95.5398 20.6136 95.3983 20.6136C93.9398 20.3765 92.3415 20.8034 91.3529 21.5606C89.9415 22.7431 88.8602 25.1573 88.6244 27.6171C88.3887 30.077 89.2358 31.4966 90.9301 31.5915C92.2472 31.6864 93.3284 30.7868 94.9756 28.3744L96.104 20.7559Z" fill="#F79420"/>
<path d="M113.32 37.3159H106.123L109.369 15.4092H116.565L113.32 37.3159ZM117.882 9.30534C117.882 11.9075 116.048 13.7524 113.508 13.7524C111.204 13.7524 109.793 12.2853 109.793 9.87287C109.793 7.50619 111.721 5.61386 114.167 5.61386C116.329 5.61386 117.882 7.1284 117.882 9.30534Z" fill="#F79420"/>
<path d="M133.639 20.7083H129.077L127.054 34.241C126.348 38.9726 125.454 41.812 123.903 44.1295C121.927 47.0637 118.54 48.436 114.119 48.0565C113.883 48.0565 113.555 48.009 113.179 47.9616L112.896 43.3248H113.791C115.391 43.3248 117.083 42.5201 117.883 41.3376C118.731 40.0602 119.248 38.4508 119.67 35.4234L121.882 20.7083H118.119L118.919 15.4091H122.682L122.87 14.2266C123.765 8.12274 126.774 4.90561 132.043 4.38552C133.643 4.24321 134.912 4.33808 136.982 4.81074L135.807 9.77789C135.477 9.77789 135.243 9.73046 135.054 9.73046C133.078 9.58815 131.62 10.2031 130.773 11.4347C130.256 12.192 130.02 12.9493 129.597 15.4091H134.443L133.639 20.7083Z" fill="#F79420"/>
<path d="M151.465 15.3127L146.322 27.5222L143.659 15.3127H136.417L141.335 36.0385C140.487 37.7885 140.112 38.4984 139.453 39.4928C137.995 41.7172 136.066 42.8997 133.949 42.8997C133.244 42.8997 132.774 42.8523 131.785 42.6625L132.585 47.9617C133.055 48.0566 133.385 48.104 133.619 48.104C138.229 48.5767 141.427 46.969 144.909 42.4253C146.461 40.3907 147.495 38.5932 150.177 33.2466L159.251 15.3127H151.465Z" fill="#F79420"/>
<path d="M144.089 9.77458L144.771 5.2767H146.661L145.477 13.0578L144.21 13.3221L141.005 8.7632L140.335 13.1645H138.445L139.629 5.41901L140.86 5.15472L144.089 9.77458Z" fill="#F79420"/>
<path d="M149.625 8.68005H151.873L151.634 10.2793H149.386L148.954 13.1661H146.957L148.129 5.27657H152.673L152.434 6.94866H149.876L149.625 8.68005Z" fill="#F79420"/>
<path d="M156.49 13.1679H154.493L155.414 6.95049H153.311L153.561 5.2784H159.768L159.517 6.95049H157.425L156.49 13.1679Z" fill="#F79420"/>
<path d="M46.1737 46.8964H43.2028L42.551 48.2161H42.1484L44.5047 43.5285H44.8786L47.2348 48.2161H46.8322L46.1737 46.8964ZM46.0356 46.6084L44.6899 43.9029L43.351 46.6084H46.0356Z" fill="#F79420"/>
<path d="M48.5763 47.7344C48.2176 47.3905 48.0391 46.8891 48.0391 46.2283V43.5296H48.413V46.2148C48.413 46.7908 48.5561 47.2211 48.8441 47.5074C49.1321 47.7937 49.5481 47.936 50.0955 47.936C50.6361 47.936 51.0521 47.7937 51.3384 47.5074C51.6264 47.2211 51.7696 46.7908 51.7696 46.2148V43.5296H52.1435V46.2283C52.1435 46.8891 51.9633 47.3905 51.6028 47.7344C51.2424 48.0783 50.7372 48.2494 50.0887 48.2494C49.4386 48.2494 48.9351 48.0766 48.5763 47.7344Z" fill="#F79420"/>
<path d="M54.7224 47.9412C54.3198 47.7362 54.0032 47.4516 53.7708 47.0908C53.5384 46.7299 53.4238 46.3233 53.4238 45.8727C53.4238 45.422 53.54 45.0155 53.7708 44.6546C54.0032 44.2938 54.3198 44.0092 54.7224 43.8042C55.1249 43.5992 55.5779 43.4958 56.0798 43.4958C56.4503 43.4958 56.7922 43.55 57.1038 43.6602C57.4154 43.7703 57.6815 43.9312 57.9004 44.1464L57.6663 44.3666C57.2571 43.9956 56.7316 43.8109 56.0933 43.8109C55.6638 43.8109 55.2731 43.9007 54.9228 44.0786C54.5708 44.2565 54.2962 44.5038 54.0958 44.8189C53.8954 45.1341 53.796 45.4847 53.796 45.8744C53.796 46.2623 53.8954 46.6147 54.0958 46.9298C54.2962 47.2449 54.5708 47.4906 54.9228 47.6701C55.2731 47.848 55.6638 47.9378 56.0933 47.9378C56.7266 47.9378 57.252 47.7498 57.6663 47.3754L57.9004 47.5956C57.6815 47.8108 57.4137 47.9734 57.0988 48.0852C56.7838 48.197 56.4436 48.2529 56.0781 48.2529C55.5779 48.2495 55.1249 48.1462 54.7224 47.9412Z" fill="#F79420"/>
<path d="M60.0962 43.8364H58.252V43.5281H62.3126V43.8364H60.4684V48.2157H60.0945V43.8364H60.0962Z" fill="#F79420"/>
<path d="M63.2637 43.5281H63.6376V48.2157H63.2637V43.5281Z" fill="#F79420"/>
<path d="M66.2628 47.9378C65.8586 47.7295 65.5403 47.4448 65.3079 47.084C65.0755 46.7215 64.9609 46.3182 64.9609 45.8727C64.9609 45.4271 65.0771 45.0222 65.3079 44.6614C65.5403 44.2989 65.8569 44.0159 66.2628 43.8076C66.667 43.5992 67.1218 43.4958 67.6237 43.4958C68.1256 43.4958 68.5803 43.5992 68.9845 43.8042C69.3887 44.0092 69.707 44.2938 69.9395 44.6546C70.1719 45.0172 70.2864 45.4221 70.2864 45.8727C70.2864 46.3233 70.1702 46.7299 69.9395 47.0908C69.707 47.4533 69.3887 47.7362 68.9845 47.9412C68.5803 48.1462 68.1256 48.2496 67.6237 48.2496C67.1218 48.2496 66.6687 48.1462 66.2628 47.9378ZM68.7875 47.6668C69.1344 47.4889 69.4072 47.2415 69.6077 46.9264C69.8081 46.6113 69.9075 46.2606 69.9075 45.871C69.9075 45.483 69.8081 45.1307 69.6077 44.8156C69.4072 44.5005 69.1344 44.2548 68.7875 44.0752C68.4405 43.8973 68.0531 43.8076 67.6237 43.8076C67.1942 43.8076 66.8051 43.8973 66.4565 44.0752C66.1079 44.2531 65.8334 44.5005 65.6329 44.8156C65.4325 45.1307 65.3332 45.4814 65.3332 45.871C65.3332 46.259 65.4325 46.6113 65.6329 46.9264C65.8334 47.2415 66.1079 47.4872 66.4565 47.6668C66.8051 47.8447 67.1942 47.9344 67.6237 47.9344C68.0531 47.9344 68.4405 47.8447 68.7875 47.6668Z" fill="#F79420"/>
<path d="M75.7814 43.5281V48.2157H75.4749L71.9852 44.1447V48.2157H71.6113V43.5281H71.9263L75.4092 47.599V43.5281H75.7814Z" fill="#F79420"/>
<path d="M84.3477 48.2157L84.3409 44.204L82.1969 47.5923H82.0134L79.8694 44.2176V48.2157H79.5039V43.5281H79.8189L82.1094 47.1501L84.3999 43.5281H84.7081L84.7148 48.2157H84.3477Z" fill="#F79420"/>
<path d="M89.6952 46.896H86.7242L86.0725 48.2157H85.6699L88.0261 43.5281H88.4L90.7562 48.2157H90.3537L89.6952 46.896ZM89.5571 46.608L88.2114 43.9025L86.8725 46.608H89.5571Z" fill="#F79420"/>
<path d="M95.2702 48.2157L94.0492 46.6486C93.8689 46.6707 93.7022 46.6825 93.5523 46.6825H92.0887V48.2157H91.7148V43.5281H93.5506C94.194 43.5281 94.6993 43.667 95.0647 43.9465C95.4302 44.226 95.6138 44.6123 95.6138 45.1087C95.6138 45.4797 95.5094 45.7914 95.3022 46.0421C95.0951 46.2946 94.7986 46.4724 94.413 46.5741L95.6929 48.214H95.2702V48.2157ZM93.5523 46.381C94.098 46.381 94.5157 46.2708 94.8037 46.0489C95.0917 45.8287 95.2348 45.5136 95.2348 45.1087C95.2348 44.7021 95.0917 44.3887 94.8037 44.1684C94.5157 43.9482 94.098 43.8364 93.5523 43.8364H92.0887V46.381H93.5523Z" fill="#F79420"/>
<path d="M98.5342 45.9048L97.3856 46.9823V48.2139H97.0117V43.5263H97.3856V46.5401L100.582 43.5263H101.035L98.7818 45.6558L101.189 48.2139H100.736L98.5342 45.9048Z" fill="#F79420"/>
<path d="M105.717 47.9074V48.2157H102.184V43.5281H105.608V43.8364H102.557V45.6847H105.286V45.9862H102.557V47.9074H105.717Z" fill="#F79420"/>
<path d="M108.088 43.8364H106.244V43.5281H110.305V43.8364H108.461V48.2157H108.087V43.8364H108.088Z" fill="#F79420"/>
<path d="M6.61632 13.2493C6.79822 14.3352 7.83064 15.0738 8.91022 14.8909L19.9772 13.0138C21.0568 12.8308 21.7911 11.7923 21.6092 10.7064L21.5283 10.2287C21.3464 9.14272 20.314 8.40409 19.2344 8.58705L8.16748 10.4641C7.0879 10.6471 6.35359 11.6856 6.53548 12.7715L6.61632 13.2493Z" fill="white"/>
<path d="M11.1876 21.2962C11.8916 25.4976 10.7008 27.0884 10.7008 27.0884L21.8149 25.2028C21.8149 25.2028 20.5434 23.5663 19.964 20.1154C19.3846 16.6645 19.9657 14.1741 19.9657 14.1741L8.85156 16.0597C8.85156 16.058 10.4836 17.0931 11.1876 21.2962Z" fill="white"/>
<path d="M9.50423 30.4802L9.58507 30.958C9.76697 32.0439 10.7994 32.7825 11.879 32.5996L22.9459 30.7225C24.0255 30.5395 24.7598 29.501 24.5779 28.4151L24.4971 27.9374C24.3152 26.8514 23.2828 26.1128 22.2032 26.2958L11.1362 28.1728C10.0567 28.3558 9.32234 29.3943 9.50423 30.4802Z" fill="white"/>
<path d="M9.91353 22.8583L9.55311 20.7033C9.34932 19.4853 8.19227 18.6585 6.98132 18.8635L0.234375 19.692V26.7784L8.08448 25.4452C9.29543 25.2385 10.119 24.0746 9.91353 22.8583Z" fill="white"/>
<path d="M27.0184 19.143C29.9051 17.5167 32.3287 14.9619 32.3287 10.376V10.2591C32.3287 3.87225 27.2491 -0.249542 18.9948 -0.249542H0.234375V19.6919L6.98132 18.8635C8.19227 18.6585 9.34932 19.4869 9.55311 20.7033L9.91353 22.8582C10.1173 24.0763 9.29374 25.2402 8.08448 25.4451L0.234375 26.7784V40.3957H19.4563C28.5763 40.3957 34.5805 36.6788 34.5805 29.2484V29.1316C34.5788 23.6731 31.6937 20.9439 27.0184 19.143ZM6.61585 13.2492L6.53501 12.7715C6.35311 11.6855 7.08743 10.647 8.16701 10.4641L19.234 8.58698C20.3135 8.40401 21.346 9.14265 21.5279 10.2286L21.6087 10.7063C21.7906 11.7922 21.0563 12.8307 19.9767 13.0137L8.90974 14.8908C7.83017 15.0738 6.79774 14.3351 6.61585 13.2492ZM8.8508 16.058L19.9649 14.1725C19.9649 14.1725 19.3855 16.6628 19.9632 20.1138C20.5409 23.5647 21.8142 25.2012 21.8142 25.2012L10.7001 27.0868C10.7001 27.0868 11.8908 25.496 11.1868 21.2946C10.4828 17.0931 8.8508 16.058 8.8508 16.058ZM22.946 30.7206L11.879 32.5977C10.7994 32.7807 9.76701 32.042 9.58511 30.9561L9.50427 30.4784C9.32238 29.3924 10.0567 28.3539 11.1363 28.171L22.2032 26.2939C23.2828 26.1109 24.3152 26.8496 24.4971 27.9355L24.578 28.4132C24.7598 29.4992 24.0255 30.5377 22.946 30.7206Z" fill="#F79420"/>
</svg>
