<svg width="157" height="45" viewBox="0 0 157 45" fill="none" xmlns="http://www.w3.org/2000/svg">
<path fill-rule="evenodd" clip-rule="evenodd" d="M95.1968 25.2805C95.1968 25.2805 94.885 24.1348 94.885 23.2855V10.0001H100.209V35.589L83.1624 21.4829C82.2504 20.7092 81.7098 19.844 81.7098 19.844C81.7098 19.844 81.9797 20.7983 81.9797 21.6232L81.9755 35.0119H76.6484V9.52295L93.5383 23.3451C94.4436 24.1112 95.1968 25.2805 95.1968 25.2805Z" fill="#AAAAAA"/>
<mask id="mask0" style="mask-type:alpha" maskUnits="userSpaceOnUse" x="130" y="10" width="27" height="26">
<path fill-rule="evenodd" clip-rule="evenodd" d="M130.439 10.0023H156.103V35.0108H130.439V10.0015V10.0023Z" fill="white"/>
</mask>
<g mask="url(#mask0)">
<path fill-rule="evenodd" clip-rule="evenodd" d="M143.409 10.0023C151.847 10.0023 154.007 13.3262 154.007 18.1066C154.007 21.5699 151.454 24.9635 146.307 25.3642L145.743 25.3911C145.743 25.3911 146.241 25.4793 146.761 25.9791L156.104 35.0108H148.884L135.842 21.7791H142.337C148.153 21.7791 148.322 18.7156 148.362 17.9437C148.471 15.9545 147.835 14.3653 143.399 14.3653H135.973V35.0116H130.439V10.0015H143.409V10.0023Z" fill="#AAAAAA"/>
</g>
<path fill-rule="evenodd" clip-rule="evenodd" d="M102.605 22.8638C102.605 12.3856 111.382 9.63379 118.759 9.63379C121.712 9.63379 124.328 9.89839 127.08 10.4805L127.089 15.7943C125.506 15.3071 122.327 14.2387 118.76 14.2387C111.765 14.2387 108.37 16.9544 108.37 22.8621C108.37 27.7014 112.031 30.7858 118.76 30.7858C122.327 30.7858 125.899 29.9366 127.629 29.299L127.619 34.4533C124.869 35.0329 121.713 35.3916 118.76 35.3916C110.881 35.3932 102.605 31.5653 102.605 22.8638Z" fill="#AAAAAA"/>
<path fill-rule="evenodd" clip-rule="evenodd" d="M42.6844 10.645L47.8778 15.5321C47.7366 15.5951 47.5718 15.6733 47.3801 15.7699C47.08 15.9261 46.7211 16.1353 46.2915 16.4335C45.4358 17.0198 44.3203 17.9589 42.8937 19.4978L32.7449 30.2296C31.0048 32.0667 29.2378 33.5224 27.5943 34.2919L22.3984 29.4031C22.5405 29.3375 22.7036 29.2645 22.8936 29.1628C23.1937 29.0091 23.5526 28.7966 23.9813 28.5051C24.8346 27.9121 25.9534 26.978 27.3817 25.4366L37.528 14.7224C39.2689 12.8878 41.0393 11.4153 42.6844 10.645Z" fill="#AAAAAA"/>
<mask id="mask1" style="mask-type:alpha" maskUnits="userSpaceOnUse" x="0" y="0" width="55" height="45">
<path fill-rule="evenodd" clip-rule="evenodd" d="M0.322266 0.260742H54.1113V44.8505H0.323106V0.260742H0.322266Z" fill="white"/>
</mask>
<g mask="url(#mask1)">
<path fill-rule="evenodd" clip-rule="evenodd" d="M22.5831 36.5881C24.8789 36.5881 26.9897 36.1337 28.4204 35.392C29.2595 34.9414 30.0595 34.4216 30.812 33.838C31.6114 33.2147 32.7463 32.2437 33.7046 31.2247L43.8636 20.5231C46.4266 17.8259 47.9658 16.9926 48.9014 16.665L54.1125 21.5975C53.0247 22.7601 40.0547 36.5629 40.0547 36.5629C39.2695 37.4115 38.4527 38.2302 37.6059 39.0174C36.9045 39.6458 36.1752 40.2425 35.4203 40.8058C32.3697 43.0393 28.2952 44.8504 22.8093 44.8504C10.3764 44.8504 0.324219 34.7393 0.324219 23.0961C0.324219 8.65226 11.6163 0.271577 21.9014 0.271577C25.0554 0.177497 27.5849 0.708377 29.5847 1.38626C31.4332 2.01458 32.8287 2.77478 33.8425 3.29138C32.6446 4.05746 31.4862 5.10326 29.5771 7.1411L27.4924 9.37802C27.0124 9.19322 24.8839 8.45234 22.1527 8.5355C15.5521 8.73038 8.33453 14.0761 8.59429 22.8449C8.83639 31.0433 15.6009 36.5873 22.584 36.5873" fill="#AAAAAA"/>
</g>
<mask id="mask2" style="mask-type:alpha" maskUnits="userSpaceOnUse" x="16" y="0" width="54" height="45">
<path fill-rule="evenodd" clip-rule="evenodd" d="M16.0977 0.160156H69.8867V44.7474H16.0977V0.160156Z" fill="white"/>
</mask>
<g mask="url(#mask2)">
<path fill-rule="evenodd" clip-rule="evenodd" d="M41.7914 9.61856C40.9518 10.0706 40.1505 10.5903 39.3956 11.1726C38.5978 11.7958 37.4647 12.7677 36.503 13.7841L26.3457 24.4891C23.7827 27.1855 22.2435 28.0154 21.3087 28.3438L16.0977 23.4156C17.1879 22.2505 30.1554 8.45012 30.1554 8.45012C30.9415 7.60168 31.7583 6.78214 32.6042 5.99312C33.3072 5.36383 34.0384 4.76682 34.7957 4.20392C37.8404 1.9712 41.92 0.160156 47.4067 0.160156C59.8379 0.160156 69.8867 10.2721 69.8867 21.912C69.8867 36.36 58.5954 44.7364 48.3079 44.7364C45.1572 44.8322 42.6244 44.303 40.6279 43.6184C38.7744 42.9926 37.373 42.2282 36.3634 41.7133C37.6286 40.8607 38.7113 39.9258 40.6347 37.8711L42.7177 35.6334C43.1977 35.8148 45.3262 36.5574 48.0599 36.4759C54.658 36.2793 61.8781 30.9285 61.6175 22.1614C61.3737 13.9656 54.6042 8.41904 47.6253 8.41904C45.3262 8.41904 43.2255 8.87683 41.7914 9.61856Z" fill="#AAAAAA"/>
</g>
</svg>
