<svg width="156" height="97" viewBox="0 0 156 97" fill="none" xmlns="http://www.w3.org/2000/svg">
<path fill-rule="evenodd" clip-rule="evenodd" d="M7.14313 89.8246C5.7425 89.7994 4.18747 90.0313 4.18747 91.3996C4.18747 92.2254 4.73169 92.6126 5.37969 92.6126C6.28756 92.6126 6.85794 92.0448 7.0655 91.4517C7.11697 91.3215 7.14313 91.1678 7.14313 91.0376V89.8246ZM8.3615 91.6836C8.3615 92.2774 8.38766 92.8705 8.49144 93.3611H7.32453L7.22075 92.4832H7.16928C6.78032 93.0259 6.02769 93.5164 5.01687 93.5164C3.59094 93.5164 2.89062 92.5353 2.89062 91.5282C2.89062 89.8507 4.39419 88.9216 7.09081 88.9468V88.7923C7.09081 88.2244 6.93556 87.1912 5.50962 87.1912C4.86078 87.1912 4.18747 87.3979 3.69472 87.7078L3.40953 86.8821C3.97906 86.5201 4.83547 86.2622 5.71719 86.2622C7.84344 86.2622 8.3615 87.7078 8.3615 89.1022V91.6836Z" fill="#AAAAAA"/>
<mask id="mask0" style="mask-type:alpha" maskUnits="userSpaceOnUse" x="0" y="0" width="156" height="97">
<path fill-rule="evenodd" clip-rule="evenodd" d="M0.375 96.6655H155.952V0.120117H0.375V96.6655Z" fill="white"/>
</mask>
<g mask="url(#mask0)">
<path fill-rule="evenodd" clip-rule="evenodd" d="M10.3056 93.3605H11.5763V86.391H10.3056V93.3605ZM11.7316 84.4548C11.7577 84.8941 11.4202 85.2293 10.9283 85.2293C10.7221 85.2289 10.5245 85.1471 10.3787 85.002C10.2329 84.8568 10.1508 84.6601 10.1504 84.4548C10.1504 84.0163 10.487 83.6543 10.9545 83.6543C11.4202 83.6543 11.7316 83.9903 11.7316 84.4548Z" fill="#AAAAAA"/>
<path fill-rule="evenodd" clip-rule="evenodd" d="M13.859 88.5593C13.859 87.7336 13.8336 87.0372 13.8066 86.3912H14.9221L14.9744 87.7596H15.0259C15.3364 86.8297 16.1143 86.2358 16.9707 86.2358C17.1259 86.2358 17.2297 86.2619 17.3335 86.2879V87.4757C17.189 87.4423 17.0413 87.4249 16.8931 87.4236C15.986 87.4236 15.3634 88.0948 15.1819 89.0498C15.1507 89.2463 15.1335 89.4448 15.1305 89.6437V93.3607H13.859V88.5593Z" fill="#AAAAAA"/>
<path fill-rule="evenodd" clip-rule="evenodd" d="M19.9785 90.5214C19.9785 90.702 20.0038 90.8826 20.0308 91.0371C20.2637 91.9149 21.0155 92.5088 21.9486 92.5088C23.2978 92.5088 24.0749 91.4244 24.0749 89.8242C24.0749 88.4306 23.3493 87.2428 22.001 87.2428C21.1454 87.2428 20.3151 87.8628 20.0823 88.8178C20.0295 88.9847 20.0033 89.1587 20.0046 89.3336V90.5214H19.9785ZM18.734 88.6885C18.734 87.7846 18.7078 87.0874 18.6816 86.4163H19.8224L19.8747 87.604H19.9C20.4189 86.7523 21.2492 86.2617 22.3891 86.2617C24.0749 86.2617 25.3456 87.6813 25.3456 89.799C25.3456 92.3022 23.8159 93.542 22.1562 93.542C21.223 93.542 20.4181 93.1287 20.0046 92.4576H19.9785V96.2518H18.7078V88.6885H18.7331H18.734Z" fill="#AAAAAA"/>
<path fill-rule="evenodd" clip-rule="evenodd" d="M27.5754 89.9026C27.5754 91.4247 28.4571 92.5864 29.7016 92.5864C30.92 92.5864 31.8279 91.4515 31.8279 89.8765C31.8279 88.6896 31.2313 87.2179 29.7269 87.2179C28.2234 87.1911 27.5754 88.5863 27.5754 89.9026ZM33.1239 89.8245C33.1239 92.4058 31.3351 93.5163 29.6493 93.5163C27.7568 93.5163 26.3047 92.1479 26.3047 89.9278C26.3047 87.6052 27.8344 86.2368 29.7792 86.2368C31.7764 86.2368 33.1239 87.7085 33.1239 89.8245Z" fill="#AAAAAA"/>
<path fill-rule="evenodd" clip-rule="evenodd" d="M34.525 88.5593C34.525 87.7336 34.4988 87.0372 34.4727 86.3912H35.5881L35.6396 87.7596H35.6919C36.0024 86.8297 36.7811 86.2358 37.6367 86.2358C37.792 86.2358 37.8957 86.2619 37.9995 86.2879V87.4757C37.8696 87.4496 37.7405 87.4236 37.5591 87.4236C36.6512 87.4236 36.0285 88.0948 35.8471 89.0498C35.8218 89.2305 35.7956 89.4371 35.7956 89.6437V93.3607H34.5511V88.5593H34.525Z" fill="#AAAAAA"/>
<path fill-rule="evenodd" clip-rule="evenodd" d="M41.4725 84.7388V86.4163H43.2874V87.3722H41.4725V91.1404C41.4725 91.993 41.7324 92.4827 42.4318 92.4827C42.7693 92.4827 42.9769 92.4567 43.1583 92.4055L43.2098 93.3605C42.9769 93.4639 42.5879 93.5411 42.0952 93.5411C41.4986 93.5411 41.032 93.3345 40.7207 92.9993C40.3579 92.6373 40.228 92.0182 40.228 91.1925V87.3974H39.1387V86.4423H40.228V85.1512L41.4725 84.7388Z" fill="#AAAAAA"/>
<path fill-rule="evenodd" clip-rule="evenodd" d="M147.474 56.1369C146.178 57.066 144.803 57.9177 143.325 58.6149C143.092 58.7183 142.988 59.0013 142.988 59.2088V77.5376H148.122V56.5754C148.148 55.5439 147.474 56.1369 147.474 56.1369Z" fill="#AAAAAA"/>
<path fill-rule="evenodd" clip-rule="evenodd" d="M21.9227 68.2439L21.7674 68.4757C19.5636 72.0651 17.126 73.5871 13.729 73.5871C8.95763 73.5871 5.56153 70.3347 5.53537 65.8171C5.53537 61.2744 8.95762 58.0219 13.7282 57.9959C16.9176 57.9959 19.356 59.4407 21.1186 62.3328L21.2747 62.5647L25.5778 59.8027L25.3972 59.5709C22.4931 55.5943 18.5257 53.5557 13.7282 53.5557C6.02812 53.5809 0.402 58.7183 0.375 65.7911C0.400312 72.8387 6.02813 77.9753 13.729 77.9753H13.7543C18.967 77.9753 23.1934 75.6006 25.89 71.1604L26.0191 70.9537L21.9227 68.2431V68.2439Z" fill="#AAAAAA"/>
<path fill-rule="evenodd" clip-rule="evenodd" d="M46.9709 54.0723V62.5647H35.0952V54.0723H29.9609V77.4856H35.0952V66.9537H46.9709V77.4856H52.0275V54.0723H46.9709Z" fill="#AAAAAA"/>
<path fill-rule="evenodd" clip-rule="evenodd" d="M68.8545 60.8872L68.8807 60.9124L72.1991 67.2107L72.2253 67.2628H65.5613L65.5875 67.2107L68.8545 60.9124V60.8872ZM82.649 77.0732L70.6956 54.0723H67.0134L54.9824 77.4587H60.298L63.2799 71.7022V71.677H74.4815V71.7022L77.5409 77.4587H82.8565L82.649 77.0723V77.0732Z" fill="#AAAAAA"/>
<path fill-rule="evenodd" clip-rule="evenodd" d="M102.745 54.0977V68.528L102.693 68.4507L88.8735 54.0977H85.7871V77.4858H90.8699V63.0294L90.9475 63.1075L104.794 77.4858H107.827V54.0977H102.745Z" fill="#AAAAAA"/>
<path fill-rule="evenodd" clip-rule="evenodd" d="M126.081 68.8121H132.564V70.4123C130.879 72.5803 128.7 73.6135 125.848 73.6135C121.077 73.6135 117.681 70.3611 117.681 65.8435C117.681 61.3 121.103 58.0483 125.848 58.0483C129.038 58.0483 131.475 59.4931 133.238 62.3844L133.368 62.6163L137.672 59.8795L137.516 59.6477C134.612 55.672 130.645 53.6333 125.848 53.6333C118.147 53.6585 112.52 58.7959 112.494 65.8687C112.494 72.9163 118.147 78.0529 125.848 78.0529C130.905 78.0529 135.001 75.9101 137.62 71.8831L137.672 71.8059V64.4231H126.107V68.8121H126.081Z" fill="#AAAAAA"/>
<path fill-rule="evenodd" clip-rule="evenodd" d="M47.7742 92.2258C48.1894 92.4577 48.8635 92.7164 49.5115 92.7164C50.4455 92.7164 50.886 92.251 50.886 91.6571C50.886 91.0381 50.5223 90.7029 49.5638 90.3417C48.267 89.8763 47.6443 89.1791 47.6443 88.3013C47.6443 87.1396 48.6036 86.2114 50.1334 86.2114C50.8598 86.2114 51.5078 86.392 51.8968 86.6491L51.5863 87.5789C51.3011 87.4244 50.7822 87.1665 50.108 87.1665C49.3301 87.1665 48.915 87.605 48.915 88.1476C48.915 88.7407 49.3301 89.0246 50.2633 89.3858C51.5078 89.8511 52.1567 90.4702 52.1567 91.5547C52.1567 92.8197 51.145 93.7227 49.4854 93.7227C48.7074 93.7227 47.9556 93.5161 47.4629 93.2069L47.7742 92.2258Z" fill="#AAAAAA"/>
<path fill-rule="evenodd" clip-rule="evenodd" d="M53.7388 93.5673H55.061V86.3912H53.7388V93.5673ZM54.3607 85.0489C53.8679 85.0489 53.5312 84.6617 53.5312 84.1972C53.5312 83.7326 53.8679 83.3706 54.3868 83.3706C54.8796 83.3706 55.2171 83.7326 55.2171 84.1972C55.2171 84.6877 54.8796 85.0489 54.3607 85.0489Z" fill="#AAAAAA"/>
<path fill-rule="evenodd" clip-rule="evenodd" d="M57.0836 88.3273C57.0836 87.578 57.0574 86.9849 57.0312 86.3911H58.1982L58.2766 87.5528H58.3019C58.6656 86.8816 59.495 86.2104 60.6872 86.2104C61.6727 86.2104 63.2286 86.8043 63.2286 89.2563V93.542H61.9064V89.4117C61.9064 88.25 61.4652 87.2689 60.2468 87.2689C59.3912 87.2689 58.7171 87.8888 58.4834 88.6112C58.4289 88.8044 58.4027 89.0044 58.4057 89.2051V93.542H57.0836V88.3273Z" fill="#AAAAAA"/>
<path fill-rule="evenodd" clip-rule="evenodd" d="M70.0735 89.2054C70.0735 88.9987 70.0481 88.8181 69.9958 88.6375C69.7621 87.8631 69.1403 87.2431 68.1548 87.2431C66.9102 87.2431 66.0024 88.3024 66.0024 89.9799C66.0024 91.3734 66.7288 92.5612 68.1286 92.5612C68.9327 92.5612 69.6845 92.0706 69.9444 91.218C70.022 91.0122 70.0481 90.7543 70.0481 90.5217V89.2054H70.0735ZM71.3956 92.5099C71.3956 94.1614 71.059 95.1685 70.3586 95.8137C69.633 96.4596 68.6214 96.6654 67.7143 96.6654C66.8579 96.6654 65.8994 96.4596 65.3282 96.0724L65.6657 95.0652C66.1323 95.3752 66.8841 95.633 67.792 95.633C69.1403 95.633 70.1258 94.9359 70.1258 93.1038V92.3293H70.0996C69.7106 93.0005 68.9327 93.5423 67.8181 93.5423C66.0285 93.5423 64.7578 92.0194 64.7578 90.0311C64.7578 87.6052 66.3399 86.2368 68.0248 86.2368C69.2694 86.2368 69.9444 86.8819 70.281 87.475H70.3072L70.3586 86.4174H71.5256C71.4741 86.934 71.4741 87.5019 71.4741 88.3797V92.5099H71.3956Z" fill="#AAAAAA"/>
<path fill-rule="evenodd" clip-rule="evenodd" d="M77.2293 89.9026C75.8033 89.8765 74.1698 90.1344 74.1698 91.5288C74.1698 92.3806 74.7402 92.7678 75.3882 92.7678C76.3475 92.7678 76.9441 92.1739 77.1516 91.5801C77.2031 91.4515 77.2031 91.2961 77.2031 91.1676V89.9026H77.2293ZM78.4999 91.8388C78.4999 92.4579 78.5261 93.0769 78.6037 93.5675H77.4368L77.3069 92.6645H77.2554C76.8664 93.2323 76.0885 93.7229 75.0507 93.7229C73.5994 93.7229 72.8477 92.6897 72.8477 91.6573C72.8477 89.9278 74.4027 88.9735 77.1769 88.9987V88.8433C77.1769 88.2503 77.0217 87.1659 75.5434 87.1911C74.8701 87.1911 74.1698 87.3985 73.6509 87.7337L73.3657 86.8559C73.9622 86.4947 74.844 86.2368 75.7518 86.2368C77.981 86.2368 78.4999 87.7337 78.4999 89.1793V91.8388Z" fill="#AAAAAA"/>
<path fill-rule="evenodd" clip-rule="evenodd" d="M81.7945 90.6247C81.7945 90.8053 81.8198 90.9858 81.8468 91.1673C81.9549 91.5999 82.2047 91.9844 82.5568 92.26C82.9088 92.5356 83.343 92.6867 83.7908 92.6894C85.1652 92.6894 85.9685 91.5537 85.9685 89.9275C85.9685 88.4818 85.2176 87.2689 83.8431 87.2689C82.9352 87.2689 82.105 87.8879 81.8468 88.869C81.8198 89.0496 81.7683 89.2303 81.7683 89.4117V90.6247H81.7945ZM80.4976 88.7145C80.4976 87.7846 80.4723 87.0622 80.4453 86.365H81.6122L81.6907 87.604H81.716C82.2349 86.7262 83.0905 86.2104 84.2574 86.2104C86.0208 86.2104 87.3168 87.6813 87.3168 89.8502C87.3168 92.4315 85.7356 93.6957 84.0498 93.6957C83.0905 93.6957 82.2611 93.2832 81.8198 92.5608H81.7945V96.4584H80.4723V88.7145H80.4976Z" fill="#AAAAAA"/>
<path fill-rule="evenodd" clip-rule="evenodd" d="M91.828 92.7418C93.0734 92.7418 94.0057 91.5801 94.0057 89.9278C94.0057 88.7148 93.3839 87.1919 91.8541 87.1919C90.3244 87.1919 89.6503 88.6115 89.6503 89.9799C89.6503 91.5549 90.5573 92.7418 91.828 92.7418ZM91.7757 93.7229C89.8317 93.7229 88.3281 92.3033 88.3281 90.0311C88.3281 87.6304 89.9093 86.2368 91.9056 86.2368C93.9804 86.2368 95.3802 87.7337 95.3802 89.9026C95.3802 92.5612 93.5138 93.7229 91.7757 93.7229Z" fill="#AAAAAA"/>
<path fill-rule="evenodd" clip-rule="evenodd" d="M96.9117 88.6113C96.9117 87.7596 96.8864 87.0371 96.8594 86.3651H98.001L98.0533 87.7856H98.1047C98.4414 86.8305 99.2455 86.2114 100.101 86.2114C100.231 86.2114 100.335 86.2366 100.464 86.2618V87.4748C100.308 87.4496 100.179 87.4496 99.9973 87.4496C99.0641 87.4496 98.4153 88.1468 98.2338 89.1019C98.2016 89.3067 98.1844 89.5136 98.1824 89.721V93.5421H96.8594L96.9117 88.6113Z" fill="#AAAAAA"/>
<path fill-rule="evenodd" clip-rule="evenodd" d="M106.141 89.2565C106.167 88.4308 105.805 87.1388 104.353 87.1388C103.003 87.1388 102.433 88.3526 102.329 89.2565H106.141ZM102.303 90.1855C102.329 91.9411 103.445 92.6896 104.767 92.6896C105.701 92.6896 106.297 92.5342 106.763 92.3284L106.997 93.2582C106.53 93.464 105.726 93.7219 104.585 93.7219C102.382 93.7219 101.033 92.2502 101.033 90.1082C101.033 87.9402 102.329 86.2358 104.43 86.2358C106.79 86.2358 107.386 88.3014 107.386 89.6177C107.386 89.8756 107.36 90.0822 107.333 90.2376L102.303 90.1855Z" fill="#AAAAAA"/>
</g>
</svg>
