<svg width="195" height="43" viewBox="0 0 195 43" fill="none" xmlns="http://www.w3.org/2000/svg">
<path fill-rule="evenodd" clip-rule="evenodd" d="M8.81109 8.92659L9.41298 8.28819C11.1072 6.65785 13.1125 5.38501 15.3095 4.54554C17.5064 3.70606 19.85 3.31712 22.2006 3.4019C26.0723 3.41641 29.8489 4.60249 33.0329 6.80391C33.3849 6.99685 33.7956 7.05377 34.1868 6.96385C34.5781 6.87393 34.9226 6.64344 35.1549 6.31622C35.3872 5.989 35.491 5.58788 35.4466 5.18915C35.4023 4.79043 35.2128 4.42191 34.9142 4.15371C31.2252 1.45593 26.7727 0.00141082 22.2014 0.000744066C19.2291 -0.0225139 16.2778 0.49966 13.4942 1.5413C10.9385 2.5165 8.61851 4.02148 6.68683 5.95719L6.25391 6.38978L8.81193 8.92659H8.81109Z" fill="#AAAAAA"/>
<path fill-rule="evenodd" clip-rule="evenodd" d="M33.5787 35.1218C30.338 37.6715 26.3255 39.0434 22.2009 39.0118C19.7443 39.13 17.2904 38.7292 14.9994 37.8355C12.7083 36.9419 10.6316 35.5756 8.90471 33.8257L6.31055 36.2684C8.37502 38.3625 10.8556 40.0011 13.5925 41.0788C16.3293 42.1565 19.2618 42.6494 22.2009 42.5256C27.2388 42.5758 32.1285 40.8229 35.9855 37.5838L33.5787 35.1226V35.1218Z" fill="#AAAAAA"/>
<path fill-rule="evenodd" clip-rule="evenodd" d="M25.0772 21.9871C25.0809 22.6225 24.8959 23.2447 24.5456 23.7751C24.1954 24.3054 23.6957 24.7201 23.1096 24.9667C22.5235 25.2133 21.8774 25.2807 21.253 25.1603C20.6286 25.04 20.054 24.7374 19.6017 24.2907C19.1494 23.8441 18.8398 23.2734 18.712 22.6509C18.5843 22.0285 18.6441 21.3821 18.884 20.7936C19.1238 20.2051 19.5329 19.7009 20.0595 19.3447C20.5861 18.9885 21.2066 18.7964 21.8425 18.7925H21.8618C22.2817 18.7901 22.6978 18.8703 23.0866 19.0286C23.4754 19.1869 23.8292 19.4202 24.1278 19.7151C24.4264 20.01 24.6639 20.3608 24.8268 20.7475C24.9897 21.1341 25.0748 21.5491 25.0772 21.9686V22.0055" fill="#AAAAAA"/>
<path fill-rule="evenodd" clip-rule="evenodd" d="M36.3982 20.4453H28.6888C28.5241 20.4478 28.3616 20.483 28.2107 20.5489C28.0598 20.6147 27.9235 20.7099 27.8098 20.8289C27.696 20.9478 27.6071 21.0882 27.5482 21.2419C27.4892 21.3955 27.4615 21.5594 27.4665 21.7238V22.0623C27.4535 22.2305 27.4755 22.3995 27.5311 22.5587C27.5867 22.7179 27.6746 22.8639 27.7894 22.9875C27.9043 23.111 28.0435 23.2095 28.1982 23.2767C28.353 23.3439 28.52 23.3783 28.6888 23.3778H34.5177V32.774L36.9631 34.9345C37.0079 34.9895 37.069 35.029 37.1376 35.0474C37.2062 35.0659 37.2788 35.0623 37.3453 35.0372C37.4117 35.0122 37.4686 34.9668 37.5078 34.9077C37.5471 34.8486 37.5668 34.7786 37.5641 34.7077L37.6961 21.555C37.6961 20.8494 37.1236 20.2773 36.4166 20.2773" fill="#AAAAAA"/>
<mask id="mask0" style="mask-type:alpha" maskUnits="userSpaceOnUse" x="0" y="8" width="8" height="27">
<path fill-rule="evenodd" clip-rule="evenodd" d="M0.828125 8.25049H7.40014V34.4467H0.828125V8.25049Z" fill="white"/>
</mask>
<g mask="url(#mask0)">
<path fill-rule="evenodd" clip-rule="evenodd" d="M7.39977 31.9469C5.37401 28.7879 4.33299 25.0989 4.40883 21.3478C4.33006 17.6397 5.35113 13.9913 7.34345 10.862L4.7291 8.25049C2.06714 12.1112 0.703988 16.7184 0.837013 21.4049C0.758028 26.0604 2.14608 30.6229 4.80476 34.4467L7.39977 31.9469Z" fill="#AAAAAA"/>
</g>
<path fill-rule="evenodd" clip-rule="evenodd" d="M47.5318 31.4956C47.3921 33.6444 47.953 35.7805 49.1307 37.5839C49.6834 38.291 50.4006 38.8525 51.2201 39.2194C52.0395 39.5863 52.9363 39.7475 53.8323 39.6889C54.7227 39.7461 55.6135 39.5841 56.4266 39.217C57.2398 38.85 57.9504 38.2892 58.4961 37.5839C59.6932 35.7676 60.2613 33.6091 60.1134 31.4393C60.2657 29.2925 59.6965 27.1563 58.4961 25.3695C57.9283 24.6785 57.2041 24.1324 56.3833 23.7763C55.5626 23.4202 54.6689 23.2643 53.776 23.3215C49.6258 23.3585 47.5453 26.0835 47.5318 31.4947V31.4956ZM63.7424 31.4947C63.9013 34.4778 62.9273 37.4109 61.0154 39.7074C60.0785 40.7042 58.9351 41.4847 57.6651 41.9942C56.3951 42.5038 55.0291 42.7301 53.6625 42.6575C51.8755 42.6907 50.1134 42.2361 48.5658 41.3429C47.0435 40.4192 45.8371 39.0562 45.1058 37.4335C44.2657 35.5823 43.8545 33.5655 43.9028 31.5334C43.7227 28.5837 44.6552 25.6736 46.5163 23.377C47.4569 22.3873 48.6019 21.6141 49.8717 21.1112C51.1414 20.6083 52.5056 20.3877 53.8693 20.4647C55.2019 20.4061 56.5314 20.638 57.7654 21.1442C58.9994 21.6504 60.1084 22.4189 61.0154 23.3963C62.9152 25.6552 63.8894 28.5486 63.7424 31.4956" fill="#AAAAAA"/>
<path fill-rule="evenodd" clip-rule="evenodd" d="M77.7151 39.8201C79.4097 39.9176 81.0757 39.3514 82.3595 38.2417C82.9437 37.6476 83.3964 36.9373 83.688 36.157C83.9797 35.3767 84.1039 34.5438 84.0526 33.7125V32.8674C84.0554 32.726 84.0287 32.5856 83.9741 32.4551C83.9195 32.3246 83.8382 32.2069 83.7355 32.1096C83.6328 32.0123 83.5109 31.9374 83.3776 31.8899C83.2443 31.8423 83.1026 31.8231 82.9614 31.8334H80.8926C79.0243 31.7856 77.1722 32.192 75.4958 33.0178C74.9416 33.3514 74.4903 33.8315 74.1917 34.4051C73.8931 34.9787 73.7588 35.6236 73.8037 36.2686C73.7761 36.75 73.8543 37.2317 74.0329 37.6797C74.2116 38.1277 74.4862 38.5311 74.8376 38.8617C75.6477 39.5211 76.6711 39.862 77.7151 39.8201ZM86.1213 42.2628C85.7972 42.2661 85.4819 42.1577 85.2284 41.9559C84.9748 41.7541 84.7986 41.4713 84.7292 41.1549L84.2963 39.2758H84.1274C83.3024 40.4332 82.2043 41.3692 80.9305 42.0007C79.6594 42.514 78.2951 42.7567 76.9257 42.7139C75.1186 42.8273 73.3381 42.2346 71.9602 41.0608C71.327 40.4589 70.8312 39.7276 70.5067 38.9168C70.1822 38.106 70.0365 37.2348 70.0797 36.3627C70.0797 32.0215 73.5212 29.7292 80.3857 29.5225H83.0186C83.2896 29.5127 83.5458 29.3968 83.7322 29.2C83.9185 29.0031 84.02 28.7409 84.0147 28.47V28.2071C84.1971 26.8688 83.846 25.5125 83.0371 24.4305C82.5903 24.0038 82.0565 23.6787 81.4721 23.4776C80.8878 23.2765 80.2668 23.2041 79.6519 23.2654C78.5596 23.2587 77.4735 23.4301 76.4365 23.7727C75.9094 23.9349 75.4017 24.123 74.9124 24.3355C74.5584 24.4788 74.162 24.4763 73.8098 24.3285C73.4576 24.1807 73.1783 23.8997 73.0328 23.5468C72.9593 23.3742 72.9206 23.1889 72.9188 23.0013C72.917 22.8138 72.9522 22.6277 73.0224 22.4538C73.0925 22.2798 73.1963 22.1214 73.3278 21.9875C73.4592 21.8537 73.6158 21.747 73.7885 21.6736L73.8037 21.6677C74.5402 21.378 75.2937 21.1331 76.0599 20.9344C77.289 20.6194 78.552 20.4556 79.8208 20.4463C81.8913 20.2766 83.9505 20.8863 85.5943 22.1557C86.2793 22.8848 86.8013 23.7512 87.1255 24.6974C87.4498 25.6435 87.5688 26.6478 87.4747 27.6435V40.797C87.4702 41.1694 87.3202 41.5252 87.0569 41.7887C86.7935 42.0521 86.4376 42.2024 86.065 42.2074L86.1213 42.2628Z" fill="#AAAAAA"/>
<path fill-rule="evenodd" clip-rule="evenodd" d="M98.3069 42.263C97.8414 42.2631 97.3946 42.0796 97.0636 41.7525C96.7327 41.4254 96.5442 40.981 96.5391 40.5158V13.6249C96.5391 13.3929 96.5848 13.1632 96.6736 12.9489C96.7625 12.7346 96.8927 12.5398 97.0569 12.3758C97.221 12.2118 97.4159 12.0816 97.6304 11.9929C97.8449 11.9041 98.0748 11.8584 98.3069 11.8584C98.5391 11.8584 98.7689 11.9041 98.9834 11.9929C99.1979 12.0816 99.3928 12.2118 99.557 12.3758C99.7211 12.5398 99.8513 12.7346 99.9402 12.9489C100.029 13.1632 100.075 13.3929 100.075 13.6249V40.5158C100.07 40.981 99.8812 41.4254 99.5502 41.7525C99.2192 42.0796 98.7724 42.2631 98.3069 42.263Z" fill="#AAAAAA"/>
<path fill-rule="evenodd" clip-rule="evenodd" d="M128.096 42.2628C127.725 42.266 127.363 42.1486 127.065 41.9283C126.766 41.708 126.547 41.3968 126.441 41.0415L123.075 30.1988C122.736 29.184 122.248 27.3041 121.59 24.5624H121.439C120.894 27.0975 120.405 29.0152 119.991 30.2928L116.531 41.1356C116.416 41.4824 116.193 41.7838 115.896 41.9965C115.599 42.2091 115.241 42.3221 114.876 42.3191H113.466C113.09 42.3202 112.724 42.1974 112.425 41.9698C112.126 41.7422 111.91 41.4224 111.811 41.06L106.865 23.0587C106.792 22.8034 106.779 22.5346 106.828 22.2737C106.877 22.0127 106.986 21.7667 107.147 21.5551C107.307 21.3436 107.515 21.1723 107.753 21.0548C107.992 20.9373 108.254 20.8768 108.52 20.8781C108.904 20.8752 109.278 21.0014 109.581 21.2365C109.885 21.4716 110.1 21.8019 110.193 22.1742C111.447 26.8228 112.368 30.3995 112.957 32.9044C113.494 34.8194 113.915 36.765 114.218 38.7306H114.386L114.65 37.5269C115.064 35.6487 115.459 34.1451 115.835 32.9615L119.314 22.0247C119.426 21.6744 119.647 21.3689 119.944 21.1525C120.242 20.9362 120.601 20.8204 120.969 20.8218H122.248C122.619 20.8188 122.981 20.9363 123.28 21.1566C123.578 21.3768 123.797 21.688 123.903 22.0432L127.231 32.9044L127.645 34.3702C127.796 34.8776 127.946 35.3849 128.058 35.8923C128.172 36.4005 128.322 36.8894 128.417 37.3581C128.51 37.8285 128.604 38.2602 128.66 38.6366H128.83C129.199 36.4904 129.676 34.3642 130.259 32.266L132.929 22.0995C133.029 21.7323 133.246 21.4082 133.549 21.1773C133.852 20.9465 134.222 20.8218 134.603 20.8227C134.865 20.8279 135.123 20.8929 135.357 21.0126C135.591 21.1323 135.795 21.3037 135.952 21.5136C136.11 21.7236 136.218 21.9667 136.268 22.2246C136.317 22.4824 136.308 22.7481 136.239 23.0016L131.237 41.0037C131.138 41.3661 130.922 41.6859 130.623 41.9135C130.324 42.1411 129.958 42.2639 129.582 42.2628H128.096Z" fill="#AAAAAA"/>
<path fill-rule="evenodd" clip-rule="evenodd" d="M144.871 42.2822C144.641 42.2822 144.414 42.237 144.201 42.1492C143.989 42.0614 143.797 41.9327 143.634 41.7705C143.472 41.6082 143.343 41.4156 143.255 41.2036C143.167 40.9916 143.122 40.7644 143.122 40.535V22.5506C143.122 22.3211 143.167 22.0939 143.255 21.882C143.343 21.67 143.472 21.4774 143.634 21.3151C143.797 21.1529 143.989 21.0242 144.201 20.9364C144.414 20.8486 144.641 20.8034 144.871 20.8034C145.839 20.8034 146.628 21.5829 146.638 22.5506V40.4972C146.638 40.9656 146.452 41.4148 146.12 41.7461C145.789 42.0773 145.339 42.2635 144.871 42.2637V42.2822ZM142.84 15.0343C142.781 14.7429 142.792 14.4417 142.873 14.1556C142.953 13.8694 143.1 13.6064 143.302 13.3882C143.504 13.1699 143.755 13.0026 144.034 12.9001C144.314 12.7975 144.613 12.7626 144.908 12.7982C145.439 12.7953 145.952 12.9818 146.357 13.324C146.807 13.7743 147.034 14.4009 146.977 15.0343C147.004 15.3444 146.962 15.6567 146.855 15.949C146.748 16.2413 146.578 16.5065 146.357 16.726C145.953 17.0774 145.435 17.2709 144.899 17.2709C144.363 17.2709 143.846 17.0774 143.442 16.726C143.227 16.5029 143.062 16.2367 142.958 15.945C142.854 15.6533 142.814 15.3428 142.84 15.0343Z" fill="#AAAAAA"/>
<path fill-rule="evenodd" clip-rule="evenodd" d="M169.824 36.3431C169.868 37.2465 169.684 38.1464 169.29 38.9605C168.896 39.7747 168.303 40.477 167.567 41.0035C165.699 42.2158 163.491 42.7957 161.268 42.6574C159.304 42.7161 157.346 42.4102 155.494 41.7553C155.21 41.6491 154.965 41.4595 154.79 41.2114C154.616 40.9633 154.52 40.6683 154.517 40.3651C154.514 40.1251 154.57 39.8881 154.679 39.6743C154.788 39.4605 154.947 39.2764 155.143 39.1377C155.339 38.999 155.566 38.9099 155.804 38.878C156.042 38.8462 156.284 38.8725 156.51 38.9547C158.059 39.5173 159.694 39.8099 161.343 39.8199C162.689 39.9215 164.036 39.6275 165.218 38.974C165.597 38.7212 165.906 38.377 166.116 37.9732C166.326 37.5694 166.431 37.1191 166.421 36.664C166.416 36.2388 166.307 35.8213 166.103 35.4477C165.9 35.0741 165.608 34.7558 165.254 34.5203C163.97 33.667 162.579 32.9848 161.118 32.4909C159.657 31.9695 158.251 31.3025 156.923 30.5001C156.161 30.0249 155.518 29.3819 155.043 28.6202C154.894 28.3259 154.774 28.0175 154.686 27.6995C154.361 26.5389 154.435 25.3031 154.895 24.1892C155.355 23.0753 156.176 22.1476 157.225 21.5541C158.877 20.7215 160.717 20.333 162.565 20.4268C164.379 20.4183 166.183 20.704 167.906 21.2727C168.093 21.336 168.266 21.4355 168.415 21.5656C168.564 21.6957 168.685 21.8538 168.773 22.0308C168.861 22.2079 168.912 22.4005 168.926 22.5976C168.939 22.7947 168.913 22.9924 168.849 23.1795C168.837 23.2139 168.824 23.2492 168.809 23.2828C168.662 23.6362 168.385 23.9194 168.035 24.0735C167.685 24.2277 167.288 24.2408 166.928 24.1102C165.459 23.5659 163.908 23.2736 162.34 23.2459C161.188 23.171 160.037 23.4111 159.011 23.9405C158.67 24.1218 158.385 24.3927 158.186 24.7239C157.987 25.0551 157.882 25.4342 157.883 25.8205C157.888 26.5664 158.252 27.2653 158.861 27.6995C160.255 28.6828 161.773 29.4787 163.374 30.0667C164.753 30.5525 166.077 31.1826 167.323 31.9466C168.083 32.4238 168.726 33.0661 169.204 33.8257C169.618 34.6001 169.831 35.4653 169.824 36.3431Z" fill="#AAAAAA"/>
<mask id="mask1" style="mask-type:alpha" maskUnits="userSpaceOnUse" x="176" y="20" width="19" height="23">
<path fill-rule="evenodd" clip-rule="evenodd" d="M176.236 20.4185H194.55V42.6701H176.236V20.4185Z" fill="white"/>
</mask>
<g mask="url(#mask1)">
<path fill-rule="evenodd" clip-rule="evenodd" d="M185.64 23.302C184.898 23.266 184.157 23.3919 183.468 23.671C182.779 23.9501 182.16 24.3757 181.653 24.9181C180.599 26.1941 179.986 27.7759 179.904 29.4281H190.773C190.867 27.7918 190.381 26.1747 189.401 24.861C188.928 24.3394 188.346 23.929 187.695 23.6594C187.045 23.3898 186.343 23.2677 185.64 23.302ZM186.523 42.6572C185.135 42.726 183.748 42.5023 182.452 42.0006C181.156 41.4988 179.981 40.7303 179.001 39.745C177.071 37.5244 176.086 34.6382 176.255 31.702C176.095 28.746 177.003 25.8329 178.813 23.4901C179.652 22.4811 180.713 21.6796 181.914 21.1482C183.114 20.6168 184.421 20.3698 185.733 20.4266C186.933 20.3719 188.131 20.577 189.244 21.0279C190.358 21.4788 191.361 22.1648 192.184 23.039C193.836 24.9963 194.677 27.5107 194.534 30.0673C194.529 30.6289 194.304 31.166 193.906 31.5631C193.509 31.9602 192.971 32.1856 192.409 32.1908H180.656C180.446 32.1952 180.247 32.2826 180.102 32.4336C179.957 32.5847 179.878 32.7871 179.882 32.9964L179.885 33.0359C179.949 34.7722 180.614 36.4326 181.766 37.734C182.415 38.3828 183.196 38.886 184.055 39.21C184.914 39.534 185.832 39.6714 186.749 39.6131C188.434 39.6444 190.113 39.3902 191.714 38.8613C191.93 38.7938 192.159 38.7779 192.382 38.8147C192.606 38.8516 192.817 38.9403 193 39.0737C193.183 39.2071 193.332 39.3814 193.435 39.5828C193.538 39.7841 193.593 40.0068 193.595 40.233C193.594 40.5275 193.504 40.8149 193.336 41.0568C193.168 41.2987 192.93 41.4837 192.654 41.5871C191.87 41.8828 191.065 42.1213 190.246 42.3002C189.02 42.5399 187.773 42.6595 186.523 42.6572Z" fill="#AAAAAA"/>
</g>
</svg>
