<svg width="120" height="79" viewBox="0 0 120 79" fill="none" xmlns="http://www.w3.org/2000/svg">
<path fill-rule="evenodd" clip-rule="evenodd" d="M57.277 70.1704C33.7866 72.3401 9.30757 68.9331 5.88119 50.59C4.20498 41.5491 8.32825 31.9639 13.7957 26.0099V22.8255C3.95195 31.4523 -1.39106 42.3723 1.68478 55.2772C5.6105 71.8244 26.6194 81.2021 58.6867 78.0882C71.3743 76.8501 87.9791 72.7744 99.5243 66.4425V57.4478C89.0484 63.6797 71.7139 68.8348 57.277 70.1704ZM119.148 22.6096C113.568 -4.57279 60.7622 -6.29311 26.7253 14.4112V16.6977C60.7269 -0.763388 108.951 -0.660908 113.344 24.3753C114.814 32.6543 110.146 41.2862 101.808 46.2481V52.7387C111.844 49.0696 122.135 37.1727 119.148 22.6105V22.6096ZM97.6236 52.4985C93.0263 52.0558 91.4669 49.267 91.4669 46.0498V18.6507H97.6236V52.4985ZM24.3035 53.0134C19.6969 52.5716 18.1308 49.7794 18.1308 46.5572L18.1367 28.6526H24.3035V53.0126V53.0134ZM18.1375 25.3211H24.2883V19.4815H18.1375V25.3211ZM61.1792 52.7295C56.2018 52.7295 54.0894 49.267 54.0894 45.8482V22.0846H60.1898V28.6526H64.7888V33.5809H60.1898V45.466C60.1898 46.8663 60.8522 47.6441 62.3065 47.6441H64.7888V52.7295H61.1792ZM72.4167 42.5924C72.4167 45.7147 74.3585 48.0129 77.8269 48.0129C80.5262 48.0129 81.8678 47.2653 83.4272 45.7147L87.2016 49.3157C84.7856 51.6988 82.2495 53.1461 77.7832 53.1461C71.9341 53.1461 66.3364 49.9592 66.3364 40.6721C66.3364 32.7367 71.2238 28.2435 77.6445 28.2435C84.1543 28.2435 87.9144 33.5036 87.9144 40.3932V42.5924H72.4167ZM77.3805 33.2927C75.2924 33.2927 73.6759 34.3654 73.0009 35.8211C72.6008 36.6964 72.4629 37.3659 72.4167 38.4369H81.8157C81.6955 35.822 80.5085 33.2927 77.3805 33.2927ZM35.8343 33.5809V52.7589H29.7247V28.6509L42.3382 28.6643C47.6964 28.6643 49.5206 32.4393 49.5206 35.869V52.7589H43.4227V35.9001C43.4227 34.4637 42.6787 33.58 40.8831 33.58H35.8343V33.5809Z" fill="#AAAAAA"/>
</svg>
