<svg width="24" height="24" viewBox="0 0 24 24" fill="none" xmlns="http://www.w3.org/2000/svg">
<path d="M12 20.9998C10.7369 19.9224 9.56619 18.7413 8.5 17.4688C6.9 15.5578 5 12.7118 5 9.99981C4.99858 7.16736 6.70425 4.6132 9.32107 3.52921C11.9379 2.44521 14.9501 3.04505 16.952 5.04881C18.2685 6.35942 19.0059 8.1422 19 9.99981C19 12.7118 17.1 15.5578 15.5 17.4688C14.4338 18.7413 13.2631 19.9224 12 20.9998ZM12 4.99981C9.23995 5.00312 7.00331 7.23976 7 9.99981C7 11.1658 7.527 13.1848 10.035 16.1858C10.6531 16.9238 11.309 17.6295 12 18.2998C12.691 17.6302 13.3472 16.9257 13.966 16.1888C16.473 13.1838 17 11.1648 17 9.99981C16.9967 7.23976 14.7601 5.00312 12 4.99981ZM12 12.9998C10.3431 12.9998 9 11.6566 9 9.99981C9 8.34295 10.3431 6.99981 12 6.99981C13.6569 6.99981 15 8.34295 15 9.99981C15 10.7954 14.6839 11.5585 14.1213 12.1211C13.5587 12.6837 12.7957 12.9998 12 12.9998Z" fill="#292929"/>
</svg>
